<svg xmlns="http://www.w3.org/2000/svg" width="297" height="186.673" viewBox="0 0 297 186.673">
  <g id="Free_shipping-pana" data-name="Free shipping-pana" transform="translate(-33.97 -38.52)">
    <g id="freepik--background-complete--inject-19" transform="translate(33.97 38.52)">
      <path id="Path_648" data-name="Path 648" d="M625.451,51.765c.251-1.861-2.3-3.392-4.207-3.55a10.621,10.621,0,0,1-2.727-.246c-1.872-.671-2.621-3.169-4.445-3.95-1.366-.6-2.94-.066-4.254.623a10.82,10.82,0,0,1-4.114,1.65c-1.276.083-2.684-.408-3.829.241-.851.483-1.276,1.479-2.051,2.067a4.727,4.727,0,0,1-2.684.75,7.341,7.341,0,0,0-2.765.465,2.244,2.244,0,0,0-1.383,2.291Z" transform="translate(-355.163 -41.46)" fill="#f5f5f5"/>
      <rect id="Rectangle_5" data-name="Rectangle 5" width="35.956" height="117.553" transform="translate(29.417 43.443)" fill="#f5f5f5"/>
      <rect id="Rectangle_6" data-name="Rectangle 6" width="17.978" height="117.228" transform="translate(47.395 43.443)" fill="#ebebeb"/>
      <rect id="Rectangle_7" data-name="Rectangle 7" width="12.698" height="11.542" transform="translate(33.522 31.905)" fill="#f5f5f5"/>
      <rect id="Rectangle_8" data-name="Rectangle 8" width="3.025" height="11.542" transform="translate(43.192 31.905)" fill="#ebebeb"/>
      <path id="Path_649" data-name="Path 649" d="M96.08,136.651v-.671h40v.671" transform="translate(-69.658 -93.209)" fill="#e0e0e0"/>
      <rect id="Rectangle_9" data-name="Rectangle 9" width="3.042" height="6.618" transform="translate(36.513 48.476)" fill="#fafafa"/>
      <path id="Path_650" data-name="Path 650" d="M121.1,169.837c0,.066-4.024.123-8.989.123s-8.989-.057-8.989-.123,4.024-.127,8.989-.127S121.1,169.763,121.1,169.837Z" transform="translate(-73.703 -112.136)" fill="#e0e0e0"/>
      <rect id="Rectangle_10" data-name="Rectangle 10" width="3.042" height="6.618" transform="translate(54.648 48.476)" fill="#e0e0e0"/>
      <path id="Path_651" data-name="Path 651" d="M163.718,169.837c0,.066-4.024.123-8.989.123s-8.989-.057-8.989-.123,4.024-.127,8.989-.127S163.718,169.763,163.718,169.837Z" transform="translate(-98.192 -112.136)" fill="#e0e0e0"/>
      <rect id="Rectangle_11" data-name="Rectangle 11" width="3.042" height="6.622" transform="translate(54.648 61.62)" fill="#e0e0e0"/>
      <path id="Path_652" data-name="Path 652" d="M163.718,199.777c0,.066-4.024.123-8.989.123s-8.989-.057-8.989-.123,4.024-.127,8.989-.127S163.718,199.707,163.718,199.777Z" transform="translate(-98.192 -128.937)" fill="#e0e0e0"/>
      <rect id="Rectangle_12" data-name="Rectangle 12" width="3.042" height="6.618" transform="translate(54.648 75.159)" fill="#e0e0e0"/>
      <path id="Path_653" data-name="Path 653" d="M163.718,230.627c0,.07-4.024.127-8.989.127s-8.989-.057-8.989-.127,4.024-.127,8.989-.127S163.718,230.557,163.718,230.627Z" transform="translate(-98.192 -146.248)" fill="#e0e0e0"/>
      <rect id="Rectangle_13" data-name="Rectangle 13" width="3.042" height="6.618" transform="translate(54.648 88.702)" fill="#e0e0e0"/>
      <path id="Path_654" data-name="Path 654" d="M163.718,261.477c0,.07-4.024.127-8.989.127s-8.989-.057-8.989-.127,4.024-.127,8.989-.127S163.718,261.407,163.718,261.477Z" transform="translate(-98.192 -163.559)" fill="#e0e0e0"/>
      <rect id="Rectangle_14" data-name="Rectangle 14" width="3.042" height="6.618" transform="translate(54.648 101.855)" fill="#e0e0e0"/>
      <path id="Path_655" data-name="Path 655" d="M163.718,291.447c0,.07-4.024.127-8.989.127s-8.989-.057-8.989-.127,4.024-.127,8.989-.127S163.718,291.377,163.718,291.447Z" transform="translate(-98.192 -180.376)" fill="#e0e0e0"/>
      <rect id="Rectangle_15" data-name="Rectangle 15" width="3.042" height="6.618" transform="translate(54.648 115.06)" fill="#e0e0e0"/>
      <rect id="Rectangle_16" data-name="Rectangle 16" width="3.042" height="6.618" transform="translate(54.648 128.437)" fill="#e0e0e0"/>
      <path id="Path_656" data-name="Path 656" d="M163.718,321.543c0,.07-4.024.127-8.989.127s-8.989-.057-8.989-.127,4.024-.123,8.989-.123S163.718,321.477,163.718,321.543Z" transform="translate(-98.192 -197.267)" fill="#e0e0e0"/>
      <rect id="Rectangle_17" data-name="Rectangle 17" width="3.042" height="6.618" transform="translate(36.513 61.822)" fill="#fafafa"/>
      <path id="Path_657" data-name="Path 657" d="M121.1,200.227c0,.07-4.024.127-8.989.127s-8.989-.057-8.989-.127,4.024-.127,8.989-.127S121.1,200.157,121.1,200.227Z" transform="translate(-73.703 -129.189)" fill="#e0e0e0"/>
      <rect id="Rectangle_18" data-name="Rectangle 18" width="3.042" height="6.618" transform="translate(36.513 75.163)" fill="#fafafa"/>
      <path id="Path_658" data-name="Path 658" d="M121.1,230.637c0,.07-4.024.127-8.989.127s-8.989-.057-8.989-.127,4.024-.127,8.989-.127S121.1,230.567,121.1,230.637Z" transform="translate(-73.703 -146.253)" fill="#e0e0e0"/>
      <rect id="Rectangle_19" data-name="Rectangle 19" width="3.042" height="6.618" transform="translate(36.513 88.509)" fill="#fafafa"/>
      <path id="Path_659" data-name="Path 659" d="M121.1,261.047c0,.066-4.024.123-8.989.123s-8.989-.057-8.989-.123,4.024-.127,8.989-.127S121.1,260.977,121.1,261.047Z" transform="translate(-73.703 -163.318)" fill="#e0e0e0"/>
      <rect id="Rectangle_20" data-name="Rectangle 20" width="3.042" height="6.618" transform="translate(36.513 101.855)" fill="#fafafa"/>
      <path id="Path_660" data-name="Path 660" d="M121.1,291.447c0,.07-4.024.127-8.989.127s-8.989-.057-8.989-.127,4.024-.127,8.989-.127S121.1,291.377,121.1,291.447Z" transform="translate(-73.703 -180.376)" fill="#e0e0e0"/>
      <rect id="Rectangle_21" data-name="Rectangle 21" width="3.042" height="6.618" transform="translate(36.513 115.196)" fill="#fafafa"/>
      <path id="Path_661" data-name="Path 661" d="M121.1,321.837c0,.07-4.024.127-8.989.127s-8.989-.057-8.989-.127,4.024-.127,8.989-.127S121.1,321.776,121.1,321.837Z" transform="translate(-73.703 -197.429)" fill="#e0e0e0"/>
      <rect id="Rectangle_22" data-name="Rectangle 22" width="3.042" height="6.618" transform="translate(36.513 128.542)" fill="#fafafa"/>
      <rect id="Rectangle_23" data-name="Rectangle 23" width="51.828" height="169.444" transform="translate(155.419 16.633)" fill="#f5f5f5"/>
      <rect id="Rectangle_24" data-name="Rectangle 24" width="25.912" height="168.978" transform="translate(181.331 16.633)" fill="#ebebeb"/>
      <rect id="Rectangle_25" data-name="Rectangle 25" width="18.301" height="16.637" transform="translate(161.337)" fill="#f5f5f5"/>
      <rect id="Rectangle_26" data-name="Rectangle 26" width="4.36" height="16.637" transform="translate(175.277)" fill="#ebebeb"/>
      <path id="Path_662" data-name="Path 662" d="M389.16,75.18v-.97h57.66v.97" transform="translate(-238.059 -58.547)" fill="#e0e0e0"/>
      <rect id="Rectangle_27" data-name="Rectangle 27" width="4.386" height="9.541" transform="translate(165.65 23.891)" fill="#fafafa"/>
      <path id="Path_663" data-name="Path 663" d="M425.222,123c0,.1-5.8.184-12.954.184S399.31,123.1,399.31,123s5.8-.18,12.958-.18S425.222,122.9,425.222,123Z" transform="translate(-243.891 -85.824)" fill="#e0e0e0"/>
      <rect id="Rectangle_28" data-name="Rectangle 28" width="4.386" height="9.541" transform="translate(191.788 23.891)" fill="#e0e0e0"/>
      <path id="Path_664" data-name="Path 664" d="M486.666,123c0,.1-5.8.184-12.958.184S460.75,123.1,460.75,123s5.8-.18,12.958-.18S486.666,122.9,486.666,123Z" transform="translate(-279.193 -85.824)" fill="#e0e0e0"/>
      <rect id="Rectangle_29" data-name="Rectangle 29" width="4.386" height="9.541" transform="translate(191.788 42.837)" fill="#e0e0e0"/>
      <path id="Path_665" data-name="Path 665" d="M486.666,166.174c0,.1-5.8.18-12.958.18s-12.958-.079-12.958-.18,5.8-.184,12.958-.184S486.666,166.073,486.666,166.174Z" transform="translate(-279.193 -110.049)" fill="#e0e0e0"/>
      <rect id="Rectangle_30" data-name="Rectangle 30" width="4.386" height="9.541" transform="translate(191.788 62.353)" fill="#e0e0e0"/>
      <path id="Path_666" data-name="Path 666" d="M486.666,210.644c0,.1-5.8.184-12.958.184s-12.958-.083-12.958-.184,5.8-.184,12.958-.184S486.666,210.543,486.666,210.644Z" transform="translate(-279.193 -135.003)" fill="#e0e0e0"/>
      <rect id="Rectangle_31" data-name="Rectangle 31" width="4.386" height="9.541" transform="translate(191.788 81.874)" fill="#e0e0e0"/>
      <path id="Path_667" data-name="Path 667" d="M486.666,255.12c0,.1-5.8.184-12.958.184s-12.958-.083-12.958-.184,5.8-.18,12.958-.18S486.666,255.019,486.666,255.12Z" transform="translate(-279.193 -159.962)" fill="#e0e0e0"/>
      <rect id="Rectangle_32" data-name="Rectangle 32" width="4.386" height="9.541" transform="translate(191.788 100.832)" fill="#e0e0e0"/>
      <path id="Path_668" data-name="Path 668" d="M486.666,298.324c0,.1-5.8.18-12.958.18s-12.958-.083-12.958-.18,5.8-.184,12.958-.184S486.666,298.223,486.666,298.324Z" transform="translate(-279.193 -184.203)" fill="#e0e0e0"/>
      <rect id="Rectangle_33" data-name="Rectangle 33" width="4.386" height="9.541" transform="translate(191.788 119.866)" fill="#e0e0e0"/>
      <rect id="Rectangle_34" data-name="Rectangle 34" width="4.386" height="9.541" transform="translate(191.788 139.154)" fill="#e0e0e0"/>
      <path id="Path_669" data-name="Path 669" d="M486.666,341.7c0,.1-5.8.184-12.958.184s-12.958-.083-12.958-.184,5.8-.18,12.958-.18S486.666,341.6,486.666,341.7Z" transform="translate(-279.193 -208.546)" fill="#e0e0e0"/>
      <rect id="Rectangle_35" data-name="Rectangle 35" width="4.386" height="9.541" transform="translate(165.65 43.127)" fill="#fafafa"/>
      <path id="Path_670" data-name="Path 670" d="M425.222,166.834c0,.1-5.8.18-12.954.18s-12.958-.083-12.958-.18,5.8-.184,12.958-.184S425.222,166.733,425.222,166.834Z" transform="translate(-243.891 -110.419)" fill="#e0e0e0"/>
      <rect id="Rectangle_36" data-name="Rectangle 36" width="4.386" height="9.541" transform="translate(165.65 62.362)" fill="#fafafa"/>
      <path id="Path_671" data-name="Path 671" d="M425.222,210.664c0,.1-5.8.18-12.954.18s-12.958-.083-12.958-.18,5.8-.184,12.958-.184S425.222,210.563,425.222,210.664Z" transform="translate(-243.891 -135.014)" fill="#e0e0e0"/>
      <rect id="Rectangle_37" data-name="Rectangle 37" width="4.386" height="9.541" transform="translate(165.65 81.597)" fill="#fafafa"/>
      <path id="Path_672" data-name="Path 672" d="M425.222,254.494c0,.1-5.8.18-12.954.18s-12.958-.083-12.958-.18,5.8-.184,12.958-.184S425.222,254.393,425.222,254.494Z" transform="translate(-243.891 -159.609)" fill="#e0e0e0"/>
      <rect id="Rectangle_38" data-name="Rectangle 38" width="4.386" height="9.541" transform="translate(165.65 100.832)" fill="#fafafa"/>
      <path id="Path_673" data-name="Path 673" d="M425.222,298.324c0,.1-5.8.18-12.954.18s-12.958-.083-12.958-.18,5.8-.184,12.958-.184S425.222,298.223,425.222,298.324Z" transform="translate(-243.891 -184.203)" fill="#e0e0e0"/>
      <rect id="Rectangle_39" data-name="Rectangle 39" width="4.386" height="9.541" transform="translate(165.65 120.068)" fill="#fafafa"/>
      <path id="Path_674" data-name="Path 674" d="M425.222,342.154c0,.1-5.8.18-12.954.18s-12.958-.079-12.958-.18,5.8-.184,12.958-.184S425.222,342.053,425.222,342.154Z" transform="translate(-243.891 -208.798)" fill="#e0e0e0"/>
      <rect id="Rectangle_40" data-name="Rectangle 40" width="4.386" height="9.541" transform="translate(165.65 139.303)" fill="#fafafa"/>
      <rect id="Rectangle_41" data-name="Rectangle 41" width="28.315" height="92.573" transform="translate(197.22 93.499)" fill="#f5f5f5"/>
      <rect id="Rectangle_42" data-name="Rectangle 42" width="14.158" height="92.318" transform="translate(211.378 93.499)" fill="#ebebeb"/>
      <rect id="Rectangle_43" data-name="Rectangle 43" width="9.997" height="9.089" transform="translate(200.453 84.41)" fill="#f5f5f5"/>
      <rect id="Rectangle_44" data-name="Rectangle 44" width="2.382" height="9.089" transform="translate(208.068 84.41)" fill="#ebebeb"/>
      <path id="Path_675" data-name="Path 675" d="M492.02,250.891v-.531h31.506v.531" transform="translate(-297.161 -157.392)" fill="#e0e0e0"/>
      <rect id="Rectangle_45" data-name="Rectangle 45" width="2.395" height="5.214" transform="translate(202.81 97.462)" fill="#fafafa"/>
      <path id="Path_676" data-name="Path 676" d="M511.728,277.021c0,.053-3.169.1-7.079.1s-7.079-.044-7.079-.1,3.169-.1,7.079-.1S511.728,276.955,511.728,277.021Z" transform="translate(-300.35 -172.296)" fill="#e0e0e0"/>
      <rect id="Rectangle_46" data-name="Rectangle 46" width="2.395" height="5.214" transform="translate(217.091 97.462)" fill="#e0e0e0"/>
      <path id="Path_677" data-name="Path 677" d="M545.3,277.021c0,.053-3.169.1-7.079.1s-7.079-.044-7.079-.1,3.169-.1,7.079-.1S545.3,276.955,545.3,277.021Z" transform="translate(-319.639 -172.296)" fill="#e0e0e0"/>
      <rect id="Rectangle_47" data-name="Rectangle 47" width="2.395" height="5.214" transform="translate(217.091 107.815)" fill="#e0e0e0"/>
      <path id="Path_678" data-name="Path 678" d="M545.3,300.6c0,.057-3.169.1-7.079.1s-7.079-.044-7.079-.1,3.169-.1,7.079-.1S545.3,300.548,545.3,300.6Z" transform="translate(-319.639 -185.528)" fill="#e0e0e0"/>
      <rect id="Rectangle_48" data-name="Rectangle 48" width="2.395" height="5.214" transform="translate(217.091 118.479)" fill="#e0e0e0"/>
      <path id="Path_679" data-name="Path 679" d="M545.3,324.871c0,.053-3.169.1-7.079.1s-7.079-.048-7.079-.1,3.169-.1,7.079-.1S545.3,324.827,545.3,324.871Z" transform="translate(-319.639 -199.147)" fill="#e0e0e0"/>
      <rect id="Rectangle_49" data-name="Rectangle 49" width="2.395" height="5.214" transform="translate(217.091 129.139)" fill="#e0e0e0"/>
      <path id="Path_680" data-name="Path 680" d="M545.3,349.2c0,.053-3.169.1-7.079.1s-7.079-.044-7.079-.1,3.169-.1,7.079-.1S545.3,349.144,545.3,349.2Z" transform="translate(-319.639 -212.799)" fill="#e0e0e0"/>
      <rect id="Rectangle_50" data-name="Rectangle 50" width="2.395" height="5.214" transform="translate(217.091 139.5)" fill="#e0e0e0"/>
      <path id="Path_681" data-name="Path 681" d="M545.3,372.8c0,.057-3.169.1-7.079.1s-7.079-.044-7.079-.1,3.169-.1,7.079-.1S545.3,372.744,545.3,372.8Z" transform="translate(-319.639 -226.042)" fill="#e0e0e0"/>
      <rect id="Rectangle_51" data-name="Rectangle 51" width="2.395" height="5.214" transform="translate(217.091 149.901)" fill="#e0e0e0"/>
      <rect id="Rectangle_52" data-name="Rectangle 52" width="2.395" height="5.214" transform="translate(217.091 160.434)" fill="#e0e0e0"/>
      <path id="Path_682" data-name="Path 682" d="M545.3,396.5c0,.053-3.169.1-7.079.1s-7.079-.044-7.079-.1,3.169-.1,7.079-.1S545.3,396.444,545.3,396.5Z" transform="translate(-319.639 -239.341)" fill="#e0e0e0"/>
      <rect id="Rectangle_53" data-name="Rectangle 53" width="2.395" height="5.214" transform="translate(202.81 107.973)" fill="#fafafa"/>
      <path id="Path_683" data-name="Path 683" d="M511.728,300.961c0,.057-3.169.1-7.079.1s-7.079-.044-7.079-.1,3.169-.1,7.079-.1S511.728,300.921,511.728,300.961Z" transform="translate(-300.35 -185.73)" fill="#e0e0e0"/>
      <rect id="Rectangle_54" data-name="Rectangle 54" width="2.395" height="5.214" transform="translate(202.81 118.483)" fill="#fafafa"/>
      <path id="Path_684" data-name="Path 684" d="M511.728,324.871c0,.053-3.169.1-7.079.1s-7.079-.044-7.079-.1,3.169-.1,7.079-.1S511.728,324.831,511.728,324.871Z" transform="translate(-300.35 -199.147)" fill="#e0e0e0"/>
      <rect id="Rectangle_55" data-name="Rectangle 55" width="2.395" height="5.214" transform="translate(202.81 128.99)" fill="#fafafa"/>
      <path id="Path_685" data-name="Path 685" d="M511.728,348.877c0,.057-3.169.1-7.079.1s-7.079-.044-7.079-.1,3.169-.1,7.079-.1S511.728,348.815,511.728,348.877Z" transform="translate(-300.35 -212.619)" fill="#e0e0e0"/>
      <rect id="Rectangle_56" data-name="Rectangle 56" width="2.395" height="5.214" transform="translate(202.81 139.5)" fill="#fafafa"/>
      <path id="Path_686" data-name="Path 686" d="M511.728,372.8c0,.057-3.169.1-7.079.1s-7.079-.044-7.079-.1,3.169-.1,7.079-.1S511.728,372.744,511.728,372.8Z" transform="translate(-300.35 -226.042)" fill="#e0e0e0"/>
      <rect id="Rectangle_57" data-name="Rectangle 57" width="2.395" height="5.214" transform="translate(202.81 150.006)" fill="#fafafa"/>
      <path id="Path_687" data-name="Path 687" d="M511.728,396.751c0,.053-3.169.1-7.079.1s-7.079-.044-7.079-.1,3.169-.1,7.079-.1S511.728,396.694,511.728,396.751Z" transform="translate(-300.35 -239.481)" fill="#e0e0e0"/>
      <rect id="Rectangle_58" data-name="Rectangle 58" width="2.395" height="5.214" transform="translate(202.81 160.517)" fill="#fafafa"/>
      <rect id="Rectangle_59" data-name="Rectangle 59" width="30.485" height="59.685" transform="translate(53.049 126.391)" fill="#e0e0e0"/>
      <rect id="Rectangle_60" data-name="Rectangle 60" width="14.294" height="59.685" transform="translate(69.24 126.391)" fill="#ebebeb"/>
      <rect id="Rectangle_61" data-name="Rectangle 61" width="2.74" height="6.868" transform="translate(59.443 132.004)" fill="#f5f5f5"/>
      <rect id="Rectangle_62" data-name="Rectangle 62" width="2.74" height="6.868" transform="translate(59.443 158.893)" fill="#f5f5f5"/>
      <path id="Path_688" data-name="Path 688" d="M174.9,360.975c0,.061-3.624.105-8.083.105s-8.083-.044-8.083-.105,3.625-.105,8.083-.105S174.9,360.927,174.9,360.975Z" transform="translate(-105.656 -219.404)" fill="#f5f5f5"/>
      <rect id="Rectangle_63" data-name="Rectangle 63" width="2.74" height="6.868" transform="translate(59.443 145.552)" fill="#f5f5f5"/>
      <path id="Path_689" data-name="Path 689" d="M174.9,391.86c0,.057-3.624.105-8.083.105s-8.083-.048-8.083-.105,3.625-.11,8.083-.11S174.9,391.789,174.9,391.86Z" transform="translate(-105.656 -236.732)" fill="#f5f5f5"/>
      <rect id="Rectangle_64" data-name="Rectangle 64" width="2.74" height="6.868" transform="translate(72.277 132.004)" fill="#e0e0e0"/>
      <rect id="Rectangle_65" data-name="Rectangle 65" width="2.74" height="6.868" transform="translate(78.224 132.004)" fill="#e0e0e0"/>
      <rect id="Rectangle_66" data-name="Rectangle 66" width="2.74" height="6.868" transform="translate(72.277 145.043)" fill="#e0e0e0"/>
      <rect id="Rectangle_67" data-name="Rectangle 67" width="2.74" height="6.868" transform="translate(78.224 145.043)" fill="#e0e0e0"/>
      <rect id="Rectangle_68" data-name="Rectangle 68" width="2.74" height="6.868" transform="translate(72.277 158.077)" fill="#e0e0e0"/>
      <rect id="Rectangle_69" data-name="Rectangle 69" width="2.74" height="6.868" transform="translate(78.224 158.077)" fill="#e0e0e0"/>
      <rect id="Rectangle_70" data-name="Rectangle 70" width="35.067" height="1.497" transform="translate(50.76 124.948)" fill="#e0e0e0"/>
      <path id="Path_690" data-name="Path 690" d="M189.724,326.86c0,.057-6.807.105-15.217.105s-15.217-.048-15.217-.105,6.807-.11,15.217-.11S189.724,326.781,189.724,326.86Z" transform="translate(-105.978 -200.258)" fill="#ebebeb"/>
      <path id="Path_691" data-name="Path 691" d="M92.889,360.074H43.8L43.58,280.03h49.1Z" transform="translate(-39.492 -174.041)" fill="#ebebeb"/>
      <rect id="Rectangle_71" data-name="Rectangle 71" width="24.546" height="80.044" transform="translate(28.639 105.989)" fill="#e0e0e0"/>
      <rect id="Rectangle_72" data-name="Rectangle 72" width="17.335" height="15.759" transform="translate(9.695 90.229)" fill="#ebebeb"/>
      <rect id="Rectangle_73" data-name="Rectangle 73" width="4.131" height="15.759" transform="translate(22.9 90.229)" fill="#e0e0e0"/>
      <rect id="Rectangle_74" data-name="Rectangle 74" width="54.623" height="0.917" transform="translate(0 105.067)" fill="#e0e0e0"/>
      <rect id="Rectangle_75" data-name="Rectangle 75" width="4.156" height="9.041" transform="translate(13.779 112.861)" fill="#fff"/>
      <path id="Path_692" data-name="Path 692" d="M68.13,324.162c0,.1-5.5.171-12.273.171s-12.277-.075-12.277-.171,5.5-.162,12.277-.162S68.13,324.066,68.13,324.162Z" transform="translate(-39.492 -198.714)" fill="#e0e0e0"/>
      <rect id="Rectangle_76" data-name="Rectangle 76" width="4.156" height="9.041" transform="translate(38.542 112.861)" fill="#f5f5f5"/>
      <path id="Path_693" data-name="Path 693" d="M126.336,324.151c0,.1-5.5.171-12.273.171s-12.273-.075-12.273-.171,5.492-.171,12.273-.171S126.336,324.055,126.336,324.151Z" transform="translate(-72.939 -198.703)" fill="#ebebeb"/>
      <rect id="Rectangle_77" data-name="Rectangle 77" width="4.156" height="9.041" transform="translate(38.542 130.806)" fill="#f5f5f5"/>
      <path id="Path_694" data-name="Path 694" d="M126.336,365.046c0,.092-5.5.171-12.273.171s-12.273-.079-12.273-.171,5.492-.176,12.273-.176S126.336,364.949,126.336,365.046Z" transform="translate(-72.939 -221.648)" fill="#ebebeb"/>
      <rect id="Rectangle_78" data-name="Rectangle 78" width="4.156" height="9.041" transform="translate(38.542 149.296)" fill="#f5f5f5"/>
      <path id="Path_695" data-name="Path 695" d="M126.336,407.176c0,.092-5.5.171-12.273.171s-12.273-.079-12.273-.171,5.492-.176,12.273-.176S126.336,407.079,126.336,407.176Z" transform="translate(-72.939 -245.289)" fill="#ebebeb"/>
      <rect id="Rectangle_79" data-name="Rectangle 79" width="4.156" height="9.041" transform="translate(38.542 167.785)" fill="#f5f5f5"/>
      <path id="Path_696" data-name="Path 696" d="M126.336,449.3c0,.1-5.5.176-12.273.176s-12.273-.079-12.273-.176,5.492-.171,12.273-.171S126.336,449.209,126.336,449.3Z" transform="translate(-72.939 -268.93)" fill="#ebebeb"/>
      <rect id="Rectangle_80" data-name="Rectangle 80" width="4.156" height="9.041" transform="translate(13.779 131.083)" fill="#fff"/>
      <path id="Path_697" data-name="Path 697" d="M68.13,365.671c0,.1-5.5.171-12.273.171s-12.277-.075-12.277-.171,5.5-.171,12.277-.171S68.13,365.575,68.13,365.671Z" transform="translate(-39.492 -222.002)" fill="#e0e0e0"/>
      <rect id="Rectangle_81" data-name="Rectangle 81" width="4.156" height="9.041" transform="translate(13.779 149.304)" fill="#fff"/>
      <path id="Path_698" data-name="Path 698" d="M68.13,407.18c0,.1-5.5.171-12.273.171s-12.277-.075-12.277-.171,5.5-.18,12.277-.18S68.13,407.083,68.13,407.18Z" transform="translate(-39.492 -245.289)" fill="#e0e0e0"/>
      <rect id="Rectangle_82" data-name="Rectangle 82" width="4.156" height="9.041" transform="translate(13.779 167.526)" fill="#fff"/>
      <path id="Path_699" data-name="Path 699" d="M68.13,448.711c0,.1-5.5.171-12.273.171s-12.277-.075-12.277-.171,5.5-.171,12.277-.171S68.13,448.615,68.13,448.711Z" transform="translate(-39.492 -268.599)" fill="#e0e0e0"/>
      <path id="Path_700" data-name="Path 700" d="M643.854,165.353c.353-2.66-3.284-4.827-6.02-5.073a15.112,15.112,0,0,1-3.893-.347c-2.676-.961-3.744-4.529-6.356-5.666-1.953-.851-4.2-.092-6.092.878s-3.765,2.216-5.879,2.357c-1.838.123-3.829-.584-5.445.347-1.2.689-1.829,2.115-2.935,2.958a6.714,6.714,0,0,1-3.829,1.071,10.444,10.444,0,0,0-3.952.667,3.231,3.231,0,0,0-1.978,3.27Z" transform="translate(-357.732 -103.264)" fill="#f5f5f5"/>
      <rect id="Rectangle_83" data-name="Rectangle 83" width="39.495" height="29.289" transform="translate(257.505 156.782)" fill="#ebebeb"/>
      <path id="Path_701" data-name="Path 701" d="M660.233,395.77c.06,0,0,6.184,0,6.184H657.31V395.77Z" transform="translate(-392.135 -238.987)" fill="#f5f5f5"/>
      <rect id="Rectangle_84" data-name="Rectangle 84" width="19.748" height="29.289" transform="translate(297 186.072) rotate(180)" fill="#e0e0e0"/>
      <rect id="Rectangle_85" data-name="Rectangle 85" width="5.288" height="3.858" transform="translate(258.709 180.34)" fill="#fff"/>
      <rect id="Rectangle_86" data-name="Rectangle 86" width="2.642" height="3.858" transform="translate(264.975 180.34)" fill="#fff"/>
      <rect id="Rectangle_87" data-name="Rectangle 87" width="25.716" height="19.073" transform="translate(267.532 137.71)" fill="#ebebeb"/>
      <path id="Path_702" data-name="Path 702" d="M676.5,352.31c.034,0,0,4.029,0,4.029H674.59V352.31Z" transform="translate(-402.064 -214.6)" fill="#f5f5f5"/>
      <rect id="Rectangle_88" data-name="Rectangle 88" width="12.856" height="19.073" transform="translate(293.248 156.783) rotate(180)" fill="#e0e0e0"/>
      <rect id="Rectangle_89" data-name="Rectangle 89" width="3.442" height="2.515" transform="translate(268.319 153.048)" fill="#fff"/>
      <rect id="Rectangle_90" data-name="Rectangle 90" width="1.723" height="2.515" transform="translate(272.394 153.048)" fill="#fff"/>
      <path id="Path_703" data-name="Path 703" d="M69.9,55.2c.2-1.505-1.859-2.747-3.4-2.875a8.594,8.594,0,0,1-2.208-.2c-1.514-.544-2.127-2.563-3.6-3.208a4.111,4.111,0,0,0-3.45.5,8.492,8.492,0,0,1-3.327,1.317c-1.042.07-2.174-.329-3.084.2-.681.391-1.038,1.2-1.663,1.672a3.882,3.882,0,0,1-2.174.614,5.824,5.824,0,0,0-2.238.377,1.814,1.814,0,0,0-1.123,1.852Z" transform="translate(-39.504 -44.24)" fill="#ebebeb"/>
      <path id="Path_704" data-name="Path 704" d="M688.767,125.079c.2-1.47-1.812-2.677-3.322-2.8a8.376,8.376,0,0,1-2.153-.189c-1.476-.535-2.068-2.506-3.51-3.133a4.045,4.045,0,0,0-3.365.492,8.906,8.906,0,0,1-3.246,1.317c-1.017.07-2.127-.32-3.008.193-.664.382-1.008,1.167-1.621,1.633a3.814,3.814,0,0,1-2.127.592,5.733,5.733,0,0,0-2.182.369,1.778,1.778,0,0,0-1.093,1.8Z" transform="translate(-395.473 -83.541)" fill="#ebebeb"/>
      <path id="Path_705" data-name="Path 705" d="M146.864,69.578c.366-2.752-3.4-5.016-6.224-5.266a15.55,15.55,0,0,1-4.029-.355c-2.769-1-3.875-4.687-6.577-5.863-2.021-.878-4.343-.1-6.3.922s-3.892,2.3-6.079,2.44c-1.906.127-3.969-.6-5.637.355-1.238.715-1.889,2.194-3.033,3.072a6.919,6.919,0,0,1-3.965,1.11,10.872,10.872,0,0,0-4.088.689,3.347,3.347,0,0,0-2.046,3.384Z" transform="translate(-71.247 -49.29)" fill="#f5f5f5"/>
    </g>
    <g id="freepik--Floor--inject-19" transform="translate(40.696 224.478)">
      <path id="Path_706" data-name="Path 706" d="M339.91,462.364c0,.066-64.96.114-145.065.114S49.78,462.43,49.78,462.364s64.947-.114,145.086-.114S339.91,462.3,339.91,462.364Z" transform="translate(-49.78 -462.25)" fill="#263238"/>
    </g>
    <g id="freepik--Plants--inject-19" transform="translate(152.148 194.118)">
      <path id="Path_707" data-name="Path 707" d="M320.645,420.64a3.456,3.456,0,0,1,2.178,1.646,6.382,6.382,0,0,1,.821,2.708,11.457,11.457,0,0,1-1.174,5.547c-1.744-.987-2.552-3.208-2.923-4.362-.553-1.826-.481-5.473,1.1-5.538" transform="translate(-316.057 -408.541)" fill="#e99000"/>
      <path id="Path_708" data-name="Path 708" d="M331.984,443.16a3.126,3.126,0,0,1,.328-3.033,3.888,3.888,0,0,1,2.625-1.545,1.594,1.594,0,0,1,1.357.294,1.347,1.347,0,0,1,.294,1.281,2.678,2.678,0,0,1-.723,1.145,5.007,5.007,0,0,1-3.88,1.856" transform="translate(-323.24 -418.584)" fill="#e99000"/>
      <path id="Path_709" data-name="Path 709" d="M330.554,451.656a1.893,1.893,0,0,1-.03-.377c0-.272-.021-.619-.034-1.036a11,11,0,0,1,.319-3.41,6.515,6.515,0,0,1,1.7-2.927,4.29,4.29,0,0,1,.813-.614,1.836,1.836,0,0,1,.247-.127c.055-.026.085-.039.089-.035a6,6,0,0,0-2.723,3.743,11.656,11.656,0,0,0-.349,3.37v1.036A2.019,2.019,0,0,1,330.554,451.656Z" transform="translate(-322.513 -421.16)" fill="#263238"/>
      <path id="Path_710" data-name="Path 710" d="M323,427a.733.733,0,0,1,.051.154c.034.119.072.272.123.439.106.4.255.974.425,1.69.353,1.426.813,3.4,1.276,5.6s.83,4.191,1.081,5.644c.123.724.221,1.317.281,1.716.03.193.051.351.068.47a1.216,1.216,0,0,1,0,.167.715.715,0,0,1-.043-.162c-.026-.119-.055-.272-.094-.465-.077-.417-.187-1-.319-1.707-.272-1.444-.659-3.441-1.115-5.635s-.906-4.174-1.234-5.6c-.162-.707-.294-1.282-.387-1.7l-.1-.439A.778.778,0,0,1,323,427Z" transform="translate(-318.221 -412.109)" fill="#263238"/>
      <path id="Path_711" data-name="Path 711" d="M318.213,447.327a6.961,6.961,0,0,0-4.756-4.248,1.414,1.414,0,0,0-1.536.325,1.507,1.507,0,0,0,.221,1.6,5.8,5.8,0,0,0,6.066,2.484" transform="translate(-311.767 -421.088)" fill="#e99000"/>
      <path id="Path_712" data-name="Path 712" d="M317.15,446.94a1.561,1.561,0,0,1,.34.066,3.789,3.789,0,0,1,.391.114,5.341,5.341,0,0,1,.51.189,5.806,5.806,0,0,1,.6.281,6.443,6.443,0,0,1,.651.386,7.2,7.2,0,0,1,2.348,2.572,6.827,6.827,0,0,1,.328.7,6.55,6.55,0,0,1,.23.632,5.357,5.357,0,0,1,.136.54,2.741,2.741,0,0,1,.077.413,1.805,1.805,0,0,1,.038.355c-.03,0-.085-.5-.34-1.277a6.135,6.135,0,0,0-.238-.619,6.316,6.316,0,0,0-.336-.68,7.762,7.762,0,0,0-1.008-1.4,7.907,7.907,0,0,0-1.276-1.124,7.007,7.007,0,0,0-.638-.395,6.365,6.365,0,0,0-.579-.29C317.626,447.072,317.141,446.966,317.15,446.94Z" transform="translate(-314.86 -423.299)" fill="#263238"/>
      <path id="Path_713" data-name="Path 713" d="M632.189,435.463a1.983,1.983,0,0,0-.706-1.755,4.779,4.779,0,0,1-1.247-1.5c-.387-1,.132-2.3-.527-3.129-.387-.492-1.081-.658-1.425-1.181a2.734,2.734,0,0,1-.311-.939,9.617,9.617,0,0,0-2.3-4.428,8.521,8.521,0,0,0,.9,4.27,5.5,5.5,0,0,1,.676,1.641c.145.952-.37,1.931-.145,2.866.26,1.066,1.421,1.782,1.476,2.879.047.93-.74,1.755-.681,2.677a2.6,2.6,0,0,0,.4,1.1,3.567,3.567,0,0,0,3.271,1.988l1.9.07Z" transform="translate(-492.13 -409.601)" fill="#e99000"/>
      <g id="Group_7" data-name="Group 7" transform="translate(133.535 12.929)" opacity="0.3">
        <path id="Path_714" data-name="Path 714" d="M632.189,435.463a1.983,1.983,0,0,0-.706-1.755,4.779,4.779,0,0,1-1.247-1.5c-.387-1,.132-2.3-.527-3.129-.387-.492-1.081-.658-1.425-1.181a2.734,2.734,0,0,1-.311-.939,9.617,9.617,0,0,0-2.3-4.428,8.521,8.521,0,0,0,.9,4.27,5.5,5.5,0,0,1,.676,1.641c.145.952-.37,1.931-.145,2.866.26,1.066,1.421,1.782,1.476,2.879.047.93-.74,1.755-.681,2.677a2.6,2.6,0,0,0,.4,1.1,3.567,3.567,0,0,0,3.271,1.988l1.9.07Z" transform="translate(-625.665 -422.53)"/>
      </g>
      <path id="Path_715" data-name="Path 715" d="M643.67,431.47a1.444,1.444,0,0,0,.523,0,3.147,3.147,0,0,0,.617-.158,2.615,2.615,0,0,0,.761-.439,1.083,1.083,0,0,0,.315-.439,2.175,2.175,0,0,0,.089-.584,5.506,5.506,0,0,1,.047-.636,1.7,1.7,0,0,1,.23-.628,4.786,4.786,0,0,0,.715-1.343,4.526,4.526,0,0,0-.051-1.716,3.767,3.767,0,0,1,.047-1.843c.2-.61.617-1.167.825-1.856a9.792,9.792,0,0,0,.157-2.194,2.953,2.953,0,0,1,.247-1.088c.153-.347.366-.671.532-1.036a7.664,7.664,0,0,0,.489-2.4c.047-.413.094-.829.136-1.251a6.235,6.235,0,0,1,.213-1.255,10.179,10.179,0,0,1,.455-1.211,4.831,4.831,0,0,0,.221-.636c.034-.228.047-.439.06-.671a8.042,8.042,0,0,0-.051-1.356c-.051-.439-.132-.9-.179-1.356v-.167l-.077.039a2.945,2.945,0,0,0-1.025.878,4.819,4.819,0,0,0-.625,1.194,14.7,14.7,0,0,0-.591,2.567,7.2,7.2,0,0,1-.783,2.37c-.208.347-.459.667-.681,1a2.822,2.822,0,0,0-.472,1.119c-.111.83.332,1.558.238,2.291a2.53,2.53,0,0,1-.345,1.018,9.9,9.9,0,0,1-.57.878,5.53,5.53,0,0,0-.506.9,2.859,2.859,0,0,0-.234.983c-.047.658.042,1.286,0,1.878a4.412,4.412,0,0,1-.468,1.611c-.23.483-.485.917-.7,1.316a6.8,6.8,0,0,0-.289.628,3.1,3.1,0,0,0-.166.619,3.978,3.978,0,0,0,0,1.119,2.9,2.9,0,0,0,.544,1.426,2.113,2.113,0,0,0,.153.171.865.865,0,0,0,.128.11l.106.079a2.6,2.6,0,0,1-.366-.377,2.863,2.863,0,0,1-.519-1.418,4.036,4.036,0,0,1,.026-1.1,3.332,3.332,0,0,1,.17-.606,6.631,6.631,0,0,1,.289-.614c.213-.439.472-.851.706-1.339a4.491,4.491,0,0,0,.485-1.637c.051-.606-.038-1.238,0-1.883a2.787,2.787,0,0,1,.23-.948,5.4,5.4,0,0,1,.5-.878c.191-.29.4-.579.574-.9a2.638,2.638,0,0,0,.362-1.058c.094-.786-.345-1.518-.234-2.286a2.732,2.732,0,0,1,.459-1.071c.213-.334.468-.65.681-1.009a7.173,7.173,0,0,0,.8-2.409,15.189,15.189,0,0,1,.587-2.545,4.79,4.79,0,0,1,.613-1.163,2.8,2.8,0,0,1,.978-.851l-.085-.053v.079c.047.461.128.908.179,1.356a8.256,8.256,0,0,1,.047,1.317,5.416,5.416,0,0,1-.055.654,4.2,4.2,0,0,1-.213.614,10.3,10.3,0,0,0-.459,1.224,6.324,6.324,0,0,0-.213,1.273c-.047.439-.094.843-.136,1.255a7.6,7.6,0,0,1-.476,2.357c-.157.356-.37.685-.532,1.045a3.073,3.073,0,0,0-.251,1.128,9.9,9.9,0,0,1-.145,2.164c-.2.667-.613,1.224-.821,1.856a3.845,3.845,0,0,0-.042,1.887,4.547,4.547,0,0,1,.064,1.685,4.815,4.815,0,0,1-.7,1.317,1.79,1.79,0,0,0-.234.654,5.721,5.721,0,0,0-.042.641,2.026,2.026,0,0,1-.081.571,1.061,1.061,0,0,1-.294.413,2.594,2.594,0,0,1-.744.439,3.113,3.113,0,0,1-.608.167,1.814,1.814,0,0,1-.387.039Z" transform="translate(-501.939 -401.005)" fill="#263238"/>
      <path id="Path_716" data-name="Path 716" d="M650.879,409.88a.449.449,0,0,0,0,.061l-.043.176c-.038.154-.081.386-.153.68s-.247.614-.4,1.023a14.1,14.1,0,0,0-.451,1.387c-.145.527-.272,1.106-.425,1.725a7.317,7.317,0,0,1-.608,1.918c-.153.316-.332.641-.468.992a4.711,4.711,0,0,0-.277,1.123,23.068,23.068,0,0,1-.425,2.37c-.379,1.606-.745,3.138-1.072,4.529s-.647,2.633-.9,3.7-.455,1.891-.6,2.493c-.068.285-.119.513-.157.676l-.038.18a.323.323,0,0,0,0,.061.148.148,0,0,1,.021-.061l.051-.171c.043-.167.1-.391.179-.676.149-.6.366-1.439.634-2.48s.574-2.3.923-3.686.7-2.923,1.085-4.529a23.748,23.748,0,0,0,.425-2.383,4.85,4.85,0,0,1,.264-1.1c.136-.342.306-.663.464-.987a7.489,7.489,0,0,0,.6-1.94c.132-.623.255-1.2.391-1.725s.289-.987.425-1.391.306-.733.374-1.036.1-.527.132-.685l.038-.189Z" transform="translate(-503.163 -402.503)" fill="#263238"/>
      <path id="Path_717" data-name="Path 717" d="M636.469,423.54c1.242-.759,1.6-3.072,1.081-4.459s-1.425-2.66-1.566-4.143c-.106-1.141.255-2.308,0-3.423-.344-1.5-1.765-2.664-1.753-4.209,0-.878.489-1.685.451-2.55-.047-1.062-.851-1.9-1.327-2.839a15.311,15.311,0,0,1-1.055-4.731c-.259-1.606-.851-3.327-2.229-4.116a15.576,15.576,0,0,0-.425,4.143c.043.667.787,1.935.889,3.388.06.878.1,1.755.153,2.607a8.683,8.683,0,0,0,.4,2.5c.225.606.587,1.159.753,1.782.315,1.181-.1,2.458.157,3.651.213,1.009.893,1.878,1.03,2.905.2,1.439-.706,2.936-.247,4.31a20.055,20.055,0,0,1,.927,1.935c.123.549,0,1.124.1,1.672.174.878,1.812,1.571,2.684,1.518" transform="translate(-494.402 -393.07)" fill="#e99000"/>
      <path id="Path_718" data-name="Path 718" d="M631.48,396.16v.075l.03.224c.026.2.06.487.123.878a10.23,10.23,0,0,0,.425,1.317,17.051,17.051,0,0,1,.455,1.755c.14.658.26,1.382.383,2.164a9.158,9.158,0,0,0,.638,2.449c.17.413.366.821.515,1.255a5.864,5.864,0,0,1,.26,1.387,28.92,28.92,0,0,0,.366,2.98c.379,2.019.74,3.95,1.072,5.705s.659,3.313.923,4.639.481,2.379.634,3.125c.072.36.132.645.174.847l.051.219.021.075a.475.475,0,0,0,0-.075l-.038-.224c-.038-.2-.089-.492-.153-.856-.145-.746-.349-1.812-.6-3.129s-.583-2.936-.919-4.691-.685-3.673-1.063-5.705a29.825,29.825,0,0,1-.366-2.971,6,6,0,0,0-.268-1.413c-.153-.439-.349-.856-.523-1.26a9.356,9.356,0,0,1-.642-2.422c-.128-.781-.251-1.51-.4-2.168q-.193-.889-.472-1.755c-.157-.509-.353-.93-.425-1.317s-.111-.663-.149-.856a1.138,1.138,0,0,0-.038-.219A.307.307,0,0,0,631.48,396.16Z" transform="translate(-495.471 -394.804)" fill="#263238"/>
    </g>
    <g id="freepik--Vehicle--inject-19" transform="translate(39.113 65.203)">
      <rect id="Rectangle_91" data-name="Rectangle 91" width="188.912" height="19.477" transform="translate(29.962 101.469)" fill="#e99000"/>
      <g id="Group_8" data-name="Group 8" transform="translate(29.962 101.469)" opacity="0.4">
        <rect id="Rectangle_92" data-name="Rectangle 92" width="188.912" height="19.477"/>
      </g>
      <rect id="Rectangle_93" data-name="Rectangle 93" width="55.763" height="18.037" transform="translate(122.182 123.403)" fill="#455a64"/>
      <path id="Path_719" data-name="Path 719" d="M241.67,361.92v23.843h19.041l7.632-11.41H407.371V361.92Z" transform="translate(-158.455 -246.676)" fill="#263238"/>
      <path id="Path_720" data-name="Path 720" d="M128.941,188.111a1.439,1.439,0,0,0-1.472-1.382c-7.525.32-43.251,2.01-50.6,5.653-5.624,2.791-11.784,13.21-16.127,20.227-3.114,5.029-9.993,16.194-11.384,21.9-1.178,4.827-1.889,14.869-1.808,19.85l1.965,26.358H81.895l3.242-8.707a14.269,14.269,0,0,1,13.3-9.422h32.174V218.849Z" transform="translate(-46.913 -148.368)" fill="#e99000"/>
      <path id="Path_721" data-name="Path 721" d="M75.881,206.26c-4.458,4.389-8.934,11.849-12.29,17.309-2.884,4.656-8.993,14.57-10.988,20.547-.038.11-.068.215-.1.325.987-.281,2.506-.856,2.978-1.821.71-1.461,1.621-6.469,12.877-25.37C71.775,211.487,75.111,208.116,75.881,206.26Z" transform="translate(-49.76 -159.328)" fill="#455a64"/>
      <path id="Path_722" data-name="Path 722" d="M126.987,201.8c-8.278.487-26.227,1.755-31.961,3.765C87.556,208.2,79.171,228.6,78.775,229.5l-5.649,14.921a.666.666,0,0,0,.086.585.624.624,0,0,0,.51.271h14.6a4.552,4.552,0,0,0,1.622-.3L128.357,230.2a4.579,4.579,0,0,0,2.889-4.292V205.958a4.224,4.224,0,0,0-1.261-3.024,3.962,3.962,0,0,0-3-1.132Z" transform="translate(-61.593 -156.823)" fill="#263238"/>
      <path id="Path_723" data-name="Path 723" d="M77,245.686s5.411-12.521,7.232-16.624c2.748-6.2,9.168-18.871,13.5-20.236,3.986-1.233,15.447-2.734,31.578-3.686h.153a2.663,2.663,0,0,1,2.612,2.7v20.407a2.478,2.478,0,0,1-1.557,2.313l-28.379,3.612a7.874,7.874,0,0,0-5.637,3.616l-4.918,7.737a2.528,2.528,0,0,1-.9.167Z" transform="translate(-63.837 -158.7)" fill="#455a64"/>
      <path id="Path_724" data-name="Path 724" d="M120.648,238.305,111,249.391l5.339-36.807,1.336-.474-2.629,27.266a.814.814,0,0,0,.309.718.759.759,0,0,0,.755.1Z" transform="translate(-83.374 -162.611)" fill="#263238"/>
      <path id="Path_725" data-name="Path 725" d="M46.064,344.917c-.034-.478.123-.878.362-.878l5.173-.492c.425-.044.821.786.872,1.755L52.7,349.4c.038.658-.153,1.216-.425,1.264L47,351.6c-.238.044-.468-.32-.5-.8Z" transform="translate(-46.059 -236.365)" fill="#ebebeb"/>
      <rect id="Rectangle_94" data-name="Rectangle 94" width="37.274" height="15.417" transform="translate(0 127.682)" fill="#263238"/>
      <path id="Path_933" data-name="Path 933" d="M20.56.116C31.824.1,40.944,9.51,40.93,21.129S31.774,42.178,20.51,42.192.126,32.8.14,21.179,9.3.13,20.56.116Z" transform="translate(40.042 117.828) rotate(-2.2)" fill="#263238"/>
      <path id="Path_726" data-name="Path 726" d="M142.427,413.35a.241.241,0,0,1,0,.057c-.162,11.618,8.836,21.172,20.1,21.34s20.523-9.116,20.686-20.734c0,0,0-.035,0-.053Z" transform="translate(-101.43 -275.535)" fill="#263238"/>
      <path id="Path_727" data-name="Path 727" d="M156.7,395.071a14.326,14.326,0,1,0,14.523-14.553A14.567,14.567,0,0,0,156.7,395.071Z" transform="translate(-109.63 -257.111)" fill="#fafafa"/>
      <path id="Path_728" data-name="Path 728" d="M171.223,380.518A14.535,14.535,0,0,0,156.7,395.071l28.634.439a14.571,14.571,0,0,0-14.111-14.991Z" transform="translate(-109.632 -257.111)" fill="#e0e0e0"/>
      <path id="Path_729" data-name="Path 729" d="M169.859,402.534a8.725,8.725,0,1,0,8.844-8.865A8.872,8.872,0,0,0,169.859,402.534Z" transform="translate(-117.193 -264.491)" fill="#263238"/>
      <rect id="Rectangle_95" data-name="Rectangle 95" width="8.453" height="20.929" rx="4.226" transform="translate(16.77 58.342)" fill="#263238"/>
      <path id="Path_730" data-name="Path 730" d="M76.685,276.042H76.26V253.91a3.925,3.925,0,0,1,3.858-3.98h1.021v.439H80.118a3.493,3.493,0,0,0-3.433,3.542Z" transform="translate(-63.412 -183.833)" fill="#263238"/>
      <path id="Path_731" data-name="Path 731" d="M82.469,279.5,81.286,258.81a2.682,2.682,0,0,1,.692-1.934,2.517,2.517,0,0,1,1.83-.827v.439a2.072,2.072,0,0,0-1.529.681,2.209,2.209,0,0,0-.569,1.614l1.183,20.7Z" transform="translate(-66.298 -187.268)" fill="#263238"/>
      <rect id="Rectangle_96" data-name="Rectangle 96" width="5.735" height="6.851" transform="translate(11.776 90.216)" fill="#263238"/>
      <rect id="Rectangle_97" data-name="Rectangle 97" width="2.331" height="0.439" transform="translate(13.06 77.213)" fill="#263238"/>
      <path id="Path_732" data-name="Path 732" d="M90.68,198.191l.506-.07,1.493-.18,5.786-.689,21.568-2.532c1.149-.127,2.318-.285,3.531-.395a6.431,6.431,0,0,1,1.851.123,7.047,7.047,0,0,1,1.774.693,6.735,6.735,0,0,1,2.684,2.879A6.56,6.56,0,0,1,130.49,200a7.806,7.806,0,0,1,.089,1.053v61.936H108.173a23.076,23.076,0,0,0-3.829.189,14.96,14.96,0,0,0-11.758,9.686,12.225,12.225,0,0,0-.464,1.435,12.618,12.618,0,0,0-.328,1.47l-.111.746-.051.373-.021.373-.034.75v.421c.094-.1-.132.149-.115.123H63.05V244.034q.021-1.041.145-2.076A21.283,21.283,0,0,1,65.6,234.4q1.757-3.41,3.4-6.583l6.032-11.661,4.9-9.466q.536-1.031,1.029-2c.17-.316.319-.636.5-.935a9.282,9.282,0,0,1,.574-.843,12.229,12.229,0,0,1,2.578-2.471,12.8,12.8,0,0,1,4.412-1.979,10.961,10.961,0,0,1,1.646-.276l-.425.066c-.277.044-.685.118-1.221.246a12.856,12.856,0,0,0-4.382,2,12.141,12.141,0,0,0-2.552,2.471,7.822,7.822,0,0,0-.566.834c-.174.29-.323.614-.493.935l-1.025,2-4.854,9.475c-1.821,3.537-3.829,7.439-6,11.669l-3.4,6.583a21.038,21.038,0,0,0-2.378,7.5q-.122,1.025-.14,2.058c0,.689,0,1.4,0,2.1v32.3l-.106-.105h28.3c.03-.022-.2.211-.106.105V278l.038-.764v-.377l.055-.377.111-.759a12.78,12.78,0,0,1,.332-1.492,12.341,12.341,0,0,1,.472-1.457,15.2,15.2,0,0,1,11.933-9.83,23.6,23.6,0,0,1,3.829-.189h22.3l-.111.11V202.1a12.957,12.957,0,0,0-.085-2.085,6.421,6.421,0,0,0-.6-1.935,6.5,6.5,0,0,0-2.616-2.809,6.679,6.679,0,0,0-1.727-.68,6.3,6.3,0,0,0-1.808-.127c-1.2.105-2.382.263-3.527.391l-21.564,2.462-5.79.654-1.493.162Z" transform="translate(-55.822 -152.62)" fill="#263238"/>
      <path id="Path_733" data-name="Path 733" d="M190.166,307.188a1.542,1.542,0,0,0,.332-.053,2.283,2.283,0,0,0,1.765-1.554,2.612,2.612,0,0,0,.115-.948,2.361,2.361,0,0,0-.259-1.018,2.2,2.2,0,0,0-1.914-1.207h-9.24a2.208,2.208,0,0,0-2.165,2,2.574,2.574,0,0,0,.268,1.514,2.207,2.207,0,0,0,1.064.974,3.224,3.224,0,0,0,1.387.176h3.807l3.544.035h.966a1.651,1.651,0,0,1,.332.026,2.819,2.819,0,0,1-.332.022h-.966l-3.544.035H180.8a2.489,2.489,0,0,1-.744-.176,2.425,2.425,0,0,1-1.166-1.062,2.8,2.8,0,0,1-.3-1.646,2.424,2.424,0,0,1,2.374-2.194h9.24a2.4,2.4,0,0,1,2.314,2.409,2.76,2.76,0,0,1-.14.987,2.375,2.375,0,0,1-.957,1.229,2.164,2.164,0,0,1-.915.329A1.449,1.449,0,0,1,190.166,307.188Z" transform="translate(-122.198 -213.114)" fill="#263238"/>
      <path id="Path_734" data-name="Path 734" d="M194.146,300.957a60.71,60.71,0,0,1-7.3,0,58.36,58.36,0,0,1,7.3,0Z" transform="translate(-126.956 -212.395)" fill="#fff"/>
      <path id="Path_735" data-name="Path 735" d="M133.073,386.1l-3.4-.255c.889-12.573,2.191-20.1,3.982-23,3.437-5.574,6.853-6.583,10.635-7.246a48.615,48.615,0,0,1,10.512-.329l.851.035c7.1.285,21.96.031,22.121.031l.055,3.511c-.149,0-15.106.259-22.3-.031l-.851-.035a46.24,46.24,0,0,0-9.806.285c-3.382.592-5.632,1.273-8.347,5.67C135.707,366.057,134.167,370.617,133.073,386.1Z" transform="translate(-94.101 -242.878)" fill="#263238"/>
      <rect id="Rectangle_98" data-name="Rectangle 98" width="167.603" height="115.122" transform="translate(85.482)" fill="#e99000"/>
      <path id="Path_736" data-name="Path 736" d="M414.893,215.351c0-.742-.034-42.964-.089-110.241l.089.088-163.783.026h0l.111-.114V215.351l-.1-.105,163.783.105-163.783.105H251V105h.123l163.783.022H415v.092C414.927,172.387,414.893,214.614,414.893,215.351Z" transform="translate(-163.816 -102.507)" fill="#263238"/>
      <g id="Group_9" data-name="Group 9" transform="translate(109.246 33.687)" opacity="0.5">
        <path id="Path_737" data-name="Path 737" d="M302.86,204.149l1.583,32.928,124.3-26.674-2.2-34.323Z" transform="translate(-302.86 -176.08)"/>
      </g>
      <path id="Path_738" data-name="Path 738" d="M325,270.877l.851-3.072a8.4,8.4,0,0,0,5.279.518c1.9-.439,2.978-1.369,2.727-2.5-.515-2.471-7.657.5-8.691-4.428-.659-3.177,1.608-5.828,5.76-6.745a9.824,9.824,0,0,1,5.454.176l-.744,3.015a7.25,7.25,0,0,0-4.314-.294c-2.012.439-3.025,1.5-2.795,2.607.51,2.541,7.679-.439,8.67,4.314.664,3.2-1.646,5.863-5.82,6.785A10.767,10.767,0,0,1,325,270.877Z" transform="translate(-206.336 -186.318)" fill="#fff"/>
      <path id="Path_739" data-name="Path 739" d="M372.921,244.35l.217,16.115-3.467.768-.089-6.561-6.785,1.5.094,6.583-3.493.75-.217-16.119,3.488-.772.085,6.333,6.785-1.5-.085-6.333Z" transform="translate(-225.975 -180.702)" fill="#fff"/>
      <path id="Path_740" data-name="Path 740" d="M399.82,241.572l3.48-.772.217,16.115-3.488.772Z" transform="translate(-249.327 -178.71)" fill="#fff"/>
      <path id="Path_741" data-name="Path 741" d="M429.244,239.189c.817,3.928-1.476,7.022-5.956,7.992l-3.34.737.064,4.437-3.488.772-.2-16.132,6.058-1.317C426.121,234.831,428.614,236.152,429.244,239.189Zm-3.446,1.084c-.311-1.5-1.485-1.979-3.242-1.589l-2.718.6.068,5.6,2.931-.65c2.28-.518,3.386-1.918,2.961-3.972Z" transform="translate(-258.807 -175.695)" fill="#fff"/>
      <path id="Path_742" data-name="Path 742" d="M465.538,231.364c.817,3.95-1.476,7.022-5.956,7.992l-3.335.742.072,4.437-3.488.772-.221-16.115,6.058-1.343C462.424,227.02,464.917,228.34,465.538,231.364Zm-3.446,1.088c-.311-1.505-1.489-1.984-3.242-1.593l-2.718.6.068,5.6,2.931-.65c2.3-.509,3.395-1.909,2.969-3.958Z" transform="translate(-279.659 -171.306)" fill="#fff"/>
      <path id="Path_743" data-name="Path 743" d="M489,222.432l3.488-.772.221,16.119-3.488.772Z" transform="translate(-300.569 -167.97)" fill="#fff"/>
      <path id="Path_744" data-name="Path 744" d="M519.229,213l.221,16.115-2.85.632-7.594-8.452.128,10.094-3.4.759-.221-16.119,2.867-.636,7.6,8.457-.153-10.094Z" transform="translate(-310.055 -163.11)" fill="#fff"/>
      <path id="Path_745" data-name="Path 745" d="M555.166,214.08l3.169-.7.081,6.631a9.68,9.68,0,0,1-5.343,3.147c-4.539,1-7.972-1.075-8.8-5.069-1.1-5.266,1.816-10.094,7.487-11.358,2.867-.636,5.16-.154,6.807,1.317l-2.05,2.633a4.659,4.659,0,0,0-4.254-.856,5.854,5.854,0,0,0-4.509,7.281c.481,2.317,2.306,3.555,5.152,2.923a5.821,5.821,0,0,0,2.37-1.1Z" transform="translate(-332.196 -159.438)" fill="#fff"/>
      <path id="Path_746" data-name="Path 746" d="M361.11,150.5v28.758l70.839-16.071-.026-28.425Z" transform="translate(-227.084 -119.207)" fill="#e99000"/>
      <g id="Group_10" data-name="Group 10" transform="translate(134.026 15.553)" opacity="0.3">
        <path id="Path_747" data-name="Path 747" d="M361.11,150.5v28.758l70.839-16.071-.026-28.425Z" transform="translate(-361.11 -134.76)"/>
      </g>
      <path id="Path_748" data-name="Path 748" d="M383.393,182.431l.157,6.328,7.751-1.817.03,1.475-7.738,1.817.179,6.837-1.557.364-.4-16.115,10.244-2.4.034,1.475Z" transform="translate(-238.978 -143.987)" fill="#fff"/>
      <path id="Path_749" data-name="Path 749" d="M421.935,184.075l3.952,4.49-1.7.4-3.769-4.279c-.23.079-.506.14-.766.2l-4.254,1,.136,5.108-1.578.369-.4-16.111,5.377-1.264c3.4-.794,5.692.36,6.3,3.112A5.847,5.847,0,0,1,421.935,184.075Zm1.744-6.456c-.447-2.023-2.072-2.778-4.548-2.194l-3.969.93.179,8.062,4.037-.944C422.747,182.679,424.347,180.661,423.679,177.619Z" transform="translate(-257.216 -141.08)" fill="#fff"/>
      <path id="Path_750" data-name="Path 750" d="M451.411,166.971l.14,5.736,7.747-1.817.051,1.448-7.751,1.812.153,5.986,8.985-2.107.034,1.475-10.546,2.471-.4-16.111,10.244-2.4.034,1.475Z" transform="translate(-278.056 -135.312)" fill="#fff"/>
      <path id="Path_751" data-name="Path 751" d="M484.948,159.334l.14,5.732,7.751-1.817.047,1.448-7.747,1.817.149,5.986,8.989-2.107.03,1.475-10.542,2.458-.425-16.115,10.248-2.4.034,1.475Z" transform="translate(-297.316 -131.019)" fill="#fff"/>
      <path id="Path_752" data-name="Path 752" d="M546.72,159.347l25.086-6.061-.991-2.756Z" transform="translate(-333.734 -128.056)" fill="#fafafa"/>
      <path id="Path_753" data-name="Path 753" d="M282.67,206.916l17.442-4.213-.689-1.913Z" transform="translate(-182.013 -156.259)" fill="#fafafa"/>
      <path id="Path_754" data-name="Path 754" d="M423.04,302.267l25.086-6.065-.987-2.752Z" transform="translate(-262.669 -208.254)" fill="#fafafa"/>
      <path id="Path_755" data-name="Path 755" d="M420.267,139.209c0,.061-13.392,3.366-29.936,7.377s-29.974,7.219-29.991,7.158,13.388-3.366,29.94-7.377S420.255,139.147,420.267,139.209Z" transform="translate(-226.642 -121.703)" fill="#fafafa"/>
      <path id="Path_756" data-name="Path 756" d="M325.884,229.567c0,.061-5.743,1.317-12.856,2.791s-12.886,2.633-12.9,2.572,5.743-1.317,12.856-2.8S325.872,229.506,325.884,229.567Z" transform="translate(-192.046 -172.406)" fill="#fafafa"/>
      <path id="Path_757" data-name="Path 757" d="M360.856,194.517a.83.83,0,0,1-.026-.233c0-.18,0-.4-.021-.663,0-.61,0-1.435-.034-2.44,0-2.093-.034-4.924-.051-8.053s-.06-5.964-.081-8.053c0-1-.026-1.83-.034-2.44v-.667a.8.8,0,0,1,0-.228.906.906,0,0,1,.03.228c0,.18.026.395.043.663.034.575.068,1.409.1,2.44.072,2.058.128,4.906.149,8.053s0,5.995,0,8.053c0,1.009-.026,1.834-.034,2.444a6.073,6.073,0,0,1-.021.663A1.418,1.418,0,0,1,360.856,194.517Z" transform="translate(-226.792 -139.958)" fill="#fafafa"/>
      <path id="Path_758" data-name="Path 758" d="M168.447,223.54a1.7,1.7,0,0,1-.157.136l-.468.347c-.425.3-1.008.724-1.748,1.246-1.485,1.036-3.552,2.449-5.858,3.972s-4.412,2.87-5.956,3.831c-.766.478-1.391.878-1.825,1.123l-.5.29a.839.839,0,0,1-.183.092,1.19,1.19,0,0,1,.157-.127l.481-.334,1.791-1.181,5.909-3.888,5.888-3.915,1.791-1.181.493-.316a.959.959,0,0,1,.187-.1Z" transform="translate(-106.788 -169.025)" fill="#fafafa"/>
      <path id="Path_759" data-name="Path 759" d="M151.357,228.06a1.707,1.707,0,0,1-.157.136l-.468.347c-.425.3-1.008.724-1.753,1.242-1.485,1.04-3.552,2.449-5.854,3.95s-4.412,2.874-5.956,3.836c-.766.478-1.391.878-1.825,1.119l-.5.294a.647.647,0,0,1-.183.088.9.9,0,0,1,.157-.127l.481-.329,1.787-1.185L143,233.546l5.888-3.915,1.791-1.185.489-.312a.763.763,0,0,1,.191-.075Z" transform="translate(-96.968 -171.561)" fill="#fafafa"/>
      <path id="Path_760" data-name="Path 760" d="M88.605,244.522a1.219,1.219,0,0,1-.132-.386c-.068-.25-.162-.619-.268-1.075a16.13,16.13,0,0,1-.425-3.643,8.105,8.105,0,0,1,.808-3.572,5.183,5.183,0,0,1,.6-.93,1.3,1.3,0,0,1,.281-.285,14.256,14.256,0,0,0-.749,1.29A8.63,8.63,0,0,0,88,239.431a19.328,19.328,0,0,0,.379,3.607A12.407,12.407,0,0,1,88.605,244.522Z" transform="translate(-70.031 -175.248)" fill="#fafafa"/>
      <path id="Path_761" data-name="Path 761" d="M48.984,312.268a2.4,2.4,0,0,1,0-.47c0-.316,0-.772.026-1.317.034-1.128.115-2.686.247-4.389s.289-3.265.425-4.389c.068-.562.128-1.014.174-1.317a2.358,2.358,0,0,1,.1-.478,1.893,1.893,0,0,1,0,.492l-.111,1.317c-.094,1.176-.221,2.7-.362,4.389s-.225,3.208-.306,4.389c-.038.527-.072.97-.1,1.317a1.956,1.956,0,0,1-.094.456Z" transform="translate(-47.733 -211.879)" fill="#fafafa"/>
      <path id="Path_762" data-name="Path 762" d="M143.013,347.48c0,.048-.821.167-2.093.593a16.252,16.252,0,0,0-2.174.908,16.415,16.415,0,0,0-4.6,3.511,16.869,16.869,0,0,0-1.493,1.865c-.77,1.128-1.132,1.9-1.17,1.883a3.439,3.439,0,0,1,.238-.553,5.766,5.766,0,0,1,.323-.623c.136-.237.285-.513.481-.8a15.293,15.293,0,0,1,1.472-1.918,17.432,17.432,0,0,1,2.174-2.006,16.4,16.4,0,0,1,2.493-1.54,14.468,14.468,0,0,1,2.212-.878c.319-.11.621-.171.881-.237a6.513,6.513,0,0,1,.676-.132A2.979,2.979,0,0,1,143.013,347.48Z" transform="translate(-95.141 -238.573)" fill="#fafafa"/>
      <path id="Path_763" data-name="Path 763" d="M255.718,193.7a1.1,1.1,0,0,1,0-.189v-.553c0-.5,0-1.216-.03-2.128-.026-1.861-.06-4.533-.106-7.829-.115-6.622-.272-15.746-.447-25.827s-.323-19.222-.383-25.831c-.03-3.3-.038-5.982-.034-7.829v-2.87a1.039,1.039,0,0,1,0,.189q0,.2,0,.553c0,.5,0,1.211.03,2.128.026,1.861.06,4.529.106,7.825.115,6.622.272,15.746.447,25.831s.328,19.218.383,25.827c.03,3.309.043,5.982.038,7.829v2.686a1.636,1.636,0,0,1,0,.189Z" transform="translate(-165.952 -111.284)" fill="#fafafa"/>
      <path id="Path_934" data-name="Path 934" d="M20.567.121C31.831.107,40.95,9.514,40.936,21.133S31.779,42.182,20.515,42.2.132,32.8.146,21.184,9.3.135,20.567.121Z" transform="translate(190.665 117.833) rotate(-2.29)" fill="#263238"/>
      <path id="Path_764" data-name="Path 764" d="M496.527,413.35v.057c-.162,11.617,8.835,21.17,20.1,21.337s20.521-9.115,20.683-20.732v-.053Z" transform="translate(-304.892 -275.535)" fill="#263238"/>
      <path id="Path_765" data-name="Path 765" d="M510.8,395.07a14.322,14.322,0,1,0,14.523-14.553A14.562,14.562,0,0,0,510.8,395.07Z" transform="translate(-313.093 -257.111)" fill="#fafafa"/>
      <path id="Path_766" data-name="Path 766" d="M525.323,380.518A14.531,14.531,0,0,0,510.8,395.07l28.63.439A14.563,14.563,0,0,0,525.323,380.518Z" transform="translate(-313.095 -257.111)" fill="#e0e0e0"/>
      <path id="Path_767" data-name="Path 767" d="M524,402.534a8.725,8.725,0,1,0,8.844-8.865A8.872,8.872,0,0,0,524,402.534Z" transform="translate(-320.678 -264.491)" fill="#263238"/>
      <path id="Path_768" data-name="Path 768" d="M481.316,389.142S478.211,359.3,508.185,359.3c27.652,0,27.039,25.665,26.775,29.636h-4.335s2.208-25.3-22.44-25.3-22.5,25.809-22.5,25.809S483.86,389.357,481.316,389.142Z" transform="translate(-296.101 -245.205)" fill="#455a64"/>
      <path id="Path_769" data-name="Path 769" d="M499.277,366.339a.966.966,0,0,1-.234.088c-.157.057-.391.114-.681.219a20.339,20.339,0,0,0-2.438.979A19.968,19.968,0,0,0,485.2,380.79a22.1,22.1,0,0,0-.515,2.633c-.047.316-.064.562-.089.729a1.6,1.6,0,0,1-.043.255,1.057,1.057,0,0,1,0-.255,4.255,4.255,0,0,1,.051-.737,18.418,18.418,0,0,1,.451-2.677,19.511,19.511,0,0,1,10.814-13.284,17.554,17.554,0,0,1,2.476-.922c.3-.088.536-.136.693-.176a1.052,1.052,0,0,1,.242-.018Z" transform="translate(-298.007 -249.155)" fill="#fafafa"/>
    </g>
    <g id="freepik--Character--inject-19" transform="translate(291.466 126.012)">
      <path id="Path_770" data-name="Path 770" d="M692.25,432.734l3.625,5.626,1.629,5.3a.683.683,0,0,0,.349.419.649.649,0,0,0,.536.019h0a.668.668,0,0,0,.426-.474c.332-1.387,1.527-6.5,1.242-6.895s-3.446-6.192-3.446-6.192Z" transform="translate(-669.708 -345.991)" fill="#455a64"/>
      <g id="Group_11" data-name="Group 11" transform="translate(28.681 90.356)" opacity="0.6">
        <path id="Path_771" data-name="Path 771" d="M706.68,451.52l1.412-7.75.149.241a1.062,1.062,0,0,1,.149.7c-.089.654-.379,2.458-1.276,6.32a.678.678,0,0,1-.425.487Z" transform="translate(-706.68 -443.77)" fill="#fff"/>
      </g>
      <g id="Group_12" data-name="Group 12" transform="translate(27.803 89.014)" opacity="0.6">
        <path id="Path_772" data-name="Path 772" d="M704.638,440.953a.445.445,0,0,0,.187.522.386.386,0,0,0,.506-.189.445.445,0,0,0-.2-.553.4.4,0,0,0-.5.259" transform="translate(-704.615 -440.714)" fill="#fff"/>
      </g>
      <path id="Path_773" data-name="Path 773" d="M704.062,453.507a1.887,1.887,0,0,0-.757-.127,2,2,0,0,0-.715.29.5.5,0,0,1,.149-.206,1.038,1.038,0,0,1,.553-.233.994.994,0,0,1,.587.11C704.015,453.415,704.075,453.494,704.062,453.507Z" transform="translate(-675.649 -358.719)" fill="#263238"/>
      <path id="Path_774" data-name="Path 774" d="M704.57,456.03a4.308,4.308,0,0,0-.642.075,4.236,4.236,0,0,0-.583.281c-.034-.022.157-.316.545-.439A.721.721,0,0,1,704.57,456.03Z" transform="translate(-676.08 -360.219)" fill="#263238"/>
      <path id="Path_775" data-name="Path 775" d="M703.75,450.352a6.3,6.3,0,0,0-1,.048,6.076,6.076,0,0,0-.94.338,1.448,1.448,0,0,1,.915-.483A1.476,1.476,0,0,1,703.75,450.352Z" transform="translate(-675.201 -357.025)" fill="#263238"/>
      <path id="Path_776" data-name="Path 776" d="M702.095,446.421c0,.044-.383.11-.787.355s-.664.549-.7.522a1.337,1.337,0,0,1,.625-.65,1.247,1.247,0,0,1,.859-.228Z" transform="translate(-674.511 -354.898)" fill="#263238"/>
      <path id="Path_777" data-name="Path 777" d="M699.708,442.564a3.293,3.293,0,0,0-.851.351,3.511,3.511,0,0,0-.617.667.686.686,0,0,1,.081-.276,1.472,1.472,0,0,1,1.085-.764C699.6,442.524,699.708,442.546,699.708,442.564Z" transform="translate(-673.149 -352.722)" fill="#263238"/>
      <path id="Path_778" data-name="Path 778" d="M697.488,440.731a.684.684,0,0,1-.136-.211,1.755,1.755,0,0,1-.183-.676.82.82,0,0,1,.081-.5.268.268,0,0,1,.289-.118.458.458,0,0,1,.247.2,1,1,0,0,1-.234,1.224,1.074,1.074,0,0,1-1.221.092.373.373,0,0,1-.183-.263.269.269,0,0,1,.157-.277.909.909,0,0,1,.485-.044,1.907,1.907,0,0,1,.651.2.658.658,0,0,1,.2.14,3.047,3.047,0,0,0-.851-.233.856.856,0,0,0-.425.048.145.145,0,0,0-.089.149.27.27,0,0,0,.132.167.962.962,0,0,0,1.059-.092.9.9,0,0,0,.213-1.036.318.318,0,0,0-.166-.149.147.147,0,0,0-.162.061.708.708,0,0,0-.077.439,2.872,2.872,0,0,0,.209.873Z" transform="translate(-671.946 -350.863)" fill="#263238"/>
      <path id="Path_779" data-name="Path 779" d="M676.577,442.573l-.425,5.648s5.432,1.918,5.454,2.971l-10.635-.026.3-8.825Z" transform="translate(-657.48 -352.612)" fill="#455a64"/>
      <g id="Group_13" data-name="Group 13" transform="translate(15.084 94.988)" opacity="0.6">
        <path id="Path_780" data-name="Path 780" d="M675.042,454.336a.439.439,0,0,0-.319.5.426.426,0,0,0,.477.334.474.474,0,0,0,.336-.531.423.423,0,0,0-.532-.29" transform="translate(-674.717 -454.325)" fill="#fff"/>
      </g>
      <g id="Group_14" data-name="Group 14" transform="translate(13.503 97.676)" opacity="0.6">
        <path id="Path_781" data-name="Path 781" d="M671,461.328l.03-.878,10.282.395a.77.77,0,0,1,.391.6Z" transform="translate(-671 -460.45)" fill="#fff"/>
      </g>
      <path id="Path_782" data-name="Path 782" d="M682.252,455.558c0,.053-.264.066-.527.228s-.425.382-.451.36a.651.651,0,0,1,.362-.522C681.954,455.435,682.265,455.51,682.252,455.558Z" transform="translate(-663.398 -359.998)" fill="#263238"/>
      <path id="Path_783" data-name="Path 783" d="M685.165,456.785c0,.053-.217.132-.4.351s-.242.439-.3.439-.072-.307.166-.575S685.165,456.732,685.165,456.785Z" transform="translate(-665.213 -360.702)" fill="#263238"/>
      <path id="Path_784" data-name="Path 784" d="M687.455,458.835c-.047,0-.111-.263.034-.553s.391-.4.425-.347-.136.2-.251.439S687.506,458.835,687.455,458.835Z" transform="translate(-666.921 -361.357)" fill="#263238"/>
      <path id="Path_785" data-name="Path 785" d="M681.983,452.395c-.026.048-.259-.035-.553-.026s-.528.092-.553.048.2-.232.549-.237S682.009,452.355,681.983,452.395Z" transform="translate(-663.172 -358.134)" fill="#263238"/>
      <g id="Group_15" data-name="Group 15" transform="translate(13.711 90.913)" opacity="0.3">
        <path id="Path_786" data-name="Path 786" d="M676.791,445.207l-.072,1-5.228-.263.03-.908Z" transform="translate(-671.49 -445.04)"/>
      </g>
      <path id="Path_787" data-name="Path 787" d="M681.487,448.869a.967.967,0,0,1-.532-.022,2.5,2.5,0,0,1-.553-.2,2.14,2.14,0,0,1-.3-.18.624.624,0,0,1-.157-.136.243.243,0,0,1,0-.285.29.29,0,0,1,.234-.114.788.788,0,0,1,.2.035,2.066,2.066,0,0,1,.328.132,1.915,1.915,0,0,1,.481.355c.238.246.315.439.294.439s-.136-.154-.379-.36a2.257,2.257,0,0,0-.468-.294,1.545,1.545,0,0,0-.3-.11c-.111-.035-.2-.039-.238,0s0,.026,0,.061a.429.429,0,0,0,.111.1,2.863,2.863,0,0,0,.277.176,3.021,3.021,0,0,0,.506.228A3.926,3.926,0,0,1,681.487,448.869Z" transform="translate(-662.612 -355.749)" fill="#263238"/>
      <path id="Path_788" data-name="Path 788" d="M683.294,448.029a.9.9,0,0,1-.119-.535,1.881,1.881,0,0,1,.242-.926.427.427,0,0,1,.353-.268.265.265,0,0,1,.217.162,1.084,1.084,0,0,1,.047.206,1.283,1.283,0,0,1-.264.93c-.221.272-.425.329-.425.312a2.021,2.021,0,0,0,.34-.391,1.37,1.37,0,0,0,.187-.509,1.154,1.154,0,0,0,0-.32c0-.119-.047-.211-.094-.2a.356.356,0,0,0-.191.171,1.885,1.885,0,0,0-.145.294,2.032,2.032,0,0,0-.123.544C683.277,447.818,683.324,448.02,683.294,448.029Z" transform="translate(-664.491 -354.834)" fill="#263238"/>
      <path id="Path_789" data-name="Path 789" d="M679.908,337a35.227,35.227,0,0,1,2.463,7.074c.145.834-5.59,43.166-5.59,43.166L670,386.977l3.178-39.392-1.132-7.9Z" transform="translate(-656.923 -293.501)" fill="#263238"/>
      <path id="Path_790" data-name="Path 790" d="M654.558,342.83a64.817,64.817,0,0,0,.425,8.558c.5,4.152,1.651,8.878,2.025,11.52.825,5.846,2.45,6.952,2.45,6.952l13.009,17.173,5.1-4.735-11.486-18.928s-3.054-21-2.948-20.438S654.558,342.83,654.558,342.83Z" transform="translate(-648.045 -296.773)" fill="#263238"/>
      <path id="Path_791" data-name="Path 791" d="M666.73,405a1.508,1.508,0,0,0,.123.18l.37.492,1.366,1.817c1.153,1.549,2.723,3.673,4.463,6.021s3.322,4.481,4.5,6c.583.759,1.064,1.369,1.4,1.786l.391.474a1.307,1.307,0,0,0,.145.162,1.048,1.048,0,0,0-.123-.18l-.37-.5-1.366-1.812-4.463-6.026c-1.736-2.357-3.323-4.481-4.5-5.995-.583-.764-1.064-1.369-1.4-1.786l-.4-.478A1.037,1.037,0,0,0,666.73,405Z" transform="translate(-655.044 -331.659)" fill="#455a64"/>
      <path id="Path_792" data-name="Path 792" d="M659.045,350.16a1.5,1.5,0,0,1-.183.671,4.226,4.226,0,0,1-2.323,2.247,1.533,1.533,0,0,1-.659.145,7.282,7.282,0,0,0,1.885-1.2A7.422,7.422,0,0,0,659.045,350.16Z" transform="translate(-648.81 -300.886)" fill="#455a64"/>
      <path id="Path_793" data-name="Path 793" d="M693.746,344.316a1.732,1.732,0,0,1-1.906-.29c.03-.057.425.132.944.206A8.557,8.557,0,0,1,693.746,344.316Z" transform="translate(-669.472 -297.438)" fill="#455a64"/>
      <path id="Path_794" data-name="Path 794" d="M679.109,358a2.229,2.229,0,0,1,.047.281c.026.2.055.47.1.807.077.724.187,1.755.328,3.011.264,2.58.625,6.144,1.042,10.243v-.048l1.885,3.107,6.547,10.871c.821,1.382,1.489,2.506,1.961,3.309l.51.9a1.889,1.889,0,0,1,.166.325,2.578,2.578,0,0,1-.2-.3l-.562-.878-2.021-3.269c-1.7-2.787-4.029-6.609-6.6-10.831l-1.88-3.112h0v-.026c-.383-4.086-.723-7.667-.966-10.252l-.264-3.019c-.026-.338-.047-.606-.06-.812a1.278,1.278,0,0,1-.025-.3Z" transform="translate(-662.156 -305.285)" fill="#455a64"/>
      <path id="Path_795" data-name="Path 795" d="M655.955,273.688l4.058,1.343.306,8.878s2.2,10.432,2.672,11.748a27.571,27.571,0,0,1,1.238,4.863s-.783,5.889-6.487,6.583-11.014-2.686-11.014-2.686-1.9-8.777-3.646-16.65c-1.659-7.491-.311-11.959-.311-11.959l6.249-2.317Z" transform="translate(-640.981 -257.863)" fill="#455a64"/>
      <path id="Path_935" data-name="Path 935" d="M.026.08,3.784.066l0,1L.022,1.076Z" transform="translate(14.227 21.154) rotate(-6.9)" fill="#fafafa"/>
      <path id="Path_796" data-name="Path 796" d="M676.121,255.938a.857.857,0,0,0-.906-.729.743.743,0,0,0,.28-.64.735.735,0,0,0-.369-.589,1.542,1.542,0,0,0-.3-2l-4.284,6.1a3.046,3.046,0,0,0,2.361.667,6.2,6.2,0,0,0,2.361-.878.982.982,0,0,0,.468-.439c.081-.206-.034-.5-.255-.509A.877.877,0,0,0,676.121,255.938Z" transform="translate(-657.233 -245.793)" fill="#263238"/>
      <path id="Path_797" data-name="Path 797" d="M655.452,253.4a.4.4,0,0,0-.429.171.428.428,0,0,0,0,.474.705.705,0,0,0-.673.3.757.757,0,0,0-.067.752,1.352,1.352,0,0,0-.851.241.841.841,0,0,0-.34.821.574.574,0,0,0,.681.439.838.838,0,0,0,.042.878.5.5,0,0,0,.774.022.648.648,0,0,0,.022.78.6.6,0,0,0,.74.163.7.7,0,0,0,.295.749.652.652,0,0,0,.781-.055Z" transform="translate(-647.203 -246.581)" fill="#263238"/>
      <path id="Path_798" data-name="Path 798" d="M659.017,244.6l-.187,10.792a3.32,3.32,0,0,0,2.978,3.4h0a3.191,3.191,0,0,0,2.455-.842,3.4,3.4,0,0,0,1.084-2.423c0-1.027.034-1.87.034-1.87a3.057,3.057,0,0,0,2.8-2.765c.149-1.5.187-4.924.2-7.553a3.375,3.375,0,0,0-3.02-3.414l-1.519-.136a4.6,4.6,0,0,0-3.4,1.354A4.9,4.9,0,0,0,659.017,244.6Z" transform="translate(-650.504 -238.95)" fill="#ffbe9d"/>
      <path id="Path_799" data-name="Path 799" d="M669.9,269.707a5.99,5.99,0,0,1-3.191-1.317,3.189,3.189,0,0,0,3.178,1.957Z" transform="translate(-655.032 -255.002)" fill="#eb996e"/>
      <path id="Path_800" data-name="Path 800" d="M677.688,253.3c-.047.044-.3-.189-.689-.224s-.685.14-.723.088.034-.11.166-.189a.95.95,0,0,1,.583-.132.938.938,0,0,1,.544.241C677.68,253.186,677.714,253.279,677.688,253.3Z" transform="translate(-660.523 -246.276)" fill="#263238"/>
      <path id="Path_801" data-name="Path 801" d="M669.023,253.814a.366.366,0,0,1-.379.342.34.34,0,0,1-.247-.107.362.362,0,0,1-.1-.257.366.366,0,0,1,.379-.342.339.339,0,0,1,.247.107A.362.362,0,0,1,669.023,253.814Z" transform="translate(-655.946 -246.618)" fill="#263238"/>
      <path id="Path_802" data-name="Path 802" d="M677.829,254.608a.366.366,0,0,1-.379.342.355.355,0,0,1-.34-.369.361.361,0,0,1,.379-.342.335.335,0,0,1,.247.109A.358.358,0,0,1,677.829,254.608Z" transform="translate(-661.008 -247.061)" fill="#263238"/>
      <path id="Path_803" data-name="Path 803" d="M668.843,252.52c-.047.044-.3-.189-.689-.224s-.689.14-.727.088.034-.11.166-.189a.963.963,0,0,1,1.132.105C668.834,252.406,668.868,252.5,668.843,252.52Z" transform="translate(-655.438 -245.838)" fill="#263238"/>
      <path id="Path_804" data-name="Path 804" d="M673.47,255.87a2.606,2.606,0,0,1,.651-.061c.1,0,.2,0,.217-.079a.519.519,0,0,0-.038-.307c-.072-.259-.149-.522-.225-.8a13.357,13.357,0,0,1-.481-2.089,13.926,13.926,0,0,1,.642,2.041c.072.285.145.553.213.808a.619.619,0,0,1,0,.4.256.256,0,0,1-.174.136.787.787,0,0,1-.17,0A2.474,2.474,0,0,1,673.47,255.87Z" transform="translate(-658.917 -246.102)" fill="#263238"/>
      <path id="Path_805" data-name="Path 805" d="M670.625,260.53c.064,0,.03.439.362.777s.783.334.783.391-.111.079-.3.066a1.041,1.041,0,0,1-.655-.307.949.949,0,0,1-.276-.645C670.54,260.626,670.6,260.525,670.625,260.53Z" transform="translate(-657.233 -250.591)" fill="#263238"/>
      <path id="Path_806" data-name="Path 806" d="M668.856,249.687c-.051.105-.425,0-.889.035s-.851.11-.889,0,.051-.145.208-.237a1.444,1.444,0,0,1,.672-.176,1.475,1.475,0,0,1,.681.145C668.8,249.546,668.873,249.638,668.856,249.687Z" transform="translate(-655.239 -244.294)" fill="#263238"/>
      <path id="Path_807" data-name="Path 807" d="M677.932,250.661c-.077.088-.336-.031-.655-.066s-.6,0-.651-.092.026-.136.153-.211a.93.93,0,0,1,1.051.127C677.936,250.543,677.966,250.622,677.932,250.661Z" transform="translate(-660.72 -244.786)" fill="#263238"/>
      <path id="Path_808" data-name="Path 808" d="M658.459,255.183c-.042-.022-1.7-.685-1.782,1.1a1.308,1.308,0,0,0,1.663,1.461C658.348,257.689,658.459,255.183,658.459,255.183Z" transform="translate(-649.266 -247.513)" fill="#ffbe9d"/>
      <path id="Path_809" data-name="Path 809" d="M658.416,257.773a.639.639,0,0,1-.085.044.31.31,0,0,1-.226,0,.778.778,0,0,1-.306-.707,1.13,1.13,0,0,1,.106-.439.374.374,0,0,1,.243-.224.148.148,0,0,1,.17.1v.088a.1.1,0,0,0,.03-.1.2.2,0,0,0-.064-.114.221.221,0,0,0-.162-.057.428.428,0,0,0-.328.259,1.063,1.063,0,0,0-.132.492.815.815,0,0,0,.4.794.327.327,0,0,0,.277-.031C658.408,257.816,658.421,257.777,658.416,257.773Z" transform="translate(-649.831 -248.251)" fill="#eb996e"/>
      <path id="Path_810" data-name="Path 810" d="M658.491,245.992a.9.9,0,0,1,.791.513c.089.263.089.553.179.816s.323.518.591.474a.534.534,0,0,0,.4-.369,1.538,1.538,0,0,0,.051-.575c-.03-.838-.128-1.676-.089-2.51a4.427,4.427,0,0,1,.715-2.37,2.244,2.244,0,0,1,2.127-.983c.532.092,1,.439,1.519.553a2.078,2.078,0,0,0,1.8-.439c.064-.053.349-.211.349-.211a1.08,1.08,0,0,0-.136-.566,4.937,4.937,0,0,0-4.254-1.317A5.032,5.032,0,0,0,659,241.428a7.735,7.735,0,0,0-.485,4.573" transform="translate(-650.25 -238.48)" fill="#263238"/>
      <path id="Path_811" data-name="Path 811" d="M674.047,245.179a1.625,1.625,0,0,1-1.442.79,4.442,4.442,0,0,1-1.659-.408,13.164,13.164,0,0,0-2.552-.628c-.085,0-.187,0-.225-.092s.055-.215.149-.281a7.621,7.621,0,0,1,3.6-.7,2.8,2.8,0,0,1,2.365,1.431" transform="translate(-655.865 -241.235)" fill="#263238"/>
      <path id="Path_812" data-name="Path 812" d="M667.9,241.884a3.059,3.059,0,0,0-2.016-1.176,8.249,8.249,0,0,0-7.759,4.011,11.422,11.422,0,0,1-.23-2.3,5.031,5.031,0,0,1,3.829-4.349A4.807,4.807,0,0,1,667.9,241.884Z" transform="translate(-649.965 -237.883)" fill="#455a64"/>
      <path id="Path_813" data-name="Path 813" d="M659.22,244.967a12.5,12.5,0,0,1,4.173-3.449,23.653,23.653,0,0,1,5.956-1.891,3.685,3.685,0,0,1,1.608-.031,1.464,1.464,0,0,1,1.093,1.106c.106.685-1.14,1.619-1.7,1.975a17.289,17.289,0,0,1-1.74.856s.123-1.242-1.791-1.676C664.2,241.263,659.22,244.967,659.22,244.967Z" transform="translate(-650.729 -238.802)" fill="#455a64"/>
      <path id="Path_814" data-name="Path 814" d="M670.824,239.622a4.956,4.956,0,0,0-.549-.088,7.059,7.059,0,0,0-1.519.105,22.54,22.54,0,0,0-4.845,1.417,13.345,13.345,0,0,0-4.254,2.721,6.325,6.325,0,0,0-.97,1.2c-.187.316-.26.509-.277.5s0-.053.034-.145a2.833,2.833,0,0,1,.17-.4,5.441,5.441,0,0,1,.936-1.273,12.484,12.484,0,0,1,4.28-2.817,20.155,20.155,0,0,1,4.9-1.369,6.25,6.25,0,0,1,1.549-.031,1.341,1.341,0,0,1,.425.105C670.786,239.591,670.829,239.613,670.824,239.622Z" transform="translate(-650.26 -238.741)" fill="#263238"/>
      <path id="Path_815" data-name="Path 815" d="M672.925,240.355a6.113,6.113,0,0,1,1.965-.5,2.489,2.489,0,0,0-.489-.369,4.864,4.864,0,0,0-1.531.382Z" transform="translate(-658.572 -238.785)" fill="#fafafa"/>
      <path id="Path_816" data-name="Path 816" d="M674.959,245.586a.807.807,0,0,0,.071-.792.762.762,0,0,0-.637-.45.709.709,0,0,0,.392-.411.74.74,0,0,0-.026-.576.869.869,0,0,0-1-.4,1.251,1.251,0,0,0-.787.825.817.817,0,0,0-1.412.061.444.444,0,0,0-.54-.29,1.545,1.545,0,0,0-.579.355,1.011,1.011,0,0,1-.608.285l-.149.066a.929.929,0,0,0,1.2.369.687.687,0,0,0,.475.669.658.658,0,0,0,.754-.287.677.677,0,0,0,.426.483.647.647,0,0,0,.625-.105.861.861,0,0,0,.567.532.83.83,0,0,0,.752-.154,1.519,1.519,0,0,1,.162,1.207.778.778,0,0,0,.579-.588A.8.8,0,0,0,674.959,245.586Z" transform="translate(-656.739 -240.707)" fill="#263238"/>
      <path id="Path_817" data-name="Path 817" d="M661.187,248a11.022,11.022,0,0,0-1.7.97,3.788,3.788,0,0,0-1.255,1.514l.851.838c.234.079.425.162.6,0a.773.773,0,0,0,.247-.676.619.619,0,0,0,.618-.222.666.666,0,0,0,.093-.668A.5.5,0,0,0,661,249.4a.529.529,0,0,0-.123-.492.5.5,0,0,0,.435-.334.52.52,0,0,0-.124-.544Z" transform="translate(-650.16 -243.56)" fill="#263238"/>
      <path id="Path_818" data-name="Path 818" d="M684,277s2.514,1.558,3.271,2.945,4.782,11.507,4.616,13.166-3.944,2.681-3.944,2.681L684,290.526l1.8-1.11L684,285.83Z" transform="translate(-664.967 -259.833)" fill="#455a64"/>
      <path id="Path_819" data-name="Path 819" d="M676.466,312.579s-9.138,1.887-12.456-2.194l.961-3.445s6.037,1.475,7.925.843Z" transform="translate(-653.481 -276.634)" fill="#ffbe9d"/>
      <path id="Path_820" data-name="Path 820" d="M689.885,300.71c.034.07-1.072.549-2.225,1.457s-1.88,1.891-1.94,1.843a2.351,2.351,0,0,1,.425-.667,8.545,8.545,0,0,1,1.357-1.356,8.638,8.638,0,0,1,1.621-1A2.354,2.354,0,0,1,689.885,300.71Z" transform="translate(-665.955 -273.138)" fill="#263238"/>
      <path id="Path_821" data-name="Path 821" d="M686.5,300.657a9.841,9.841,0,0,1-.821-1.681,12.584,12.584,0,0,1-.749-1.716,5.742,5.742,0,0,1,.949,1.619A6.893,6.893,0,0,1,686.5,300.657Z" transform="translate(-665.501 -271.202)" fill="#263238"/>
      <path id="Path_822" data-name="Path 822" d="M683.921,291.575a7.356,7.356,0,0,0-.221-1.466,7.8,7.8,0,0,0-.37-1.439A15.241,15.241,0,0,0,683.921,291.575Z" transform="translate(-664.582 -266.382)" fill="#263238"/>
      <path id="Path_823" data-name="Path 823" d="M642.2,279.306a10.139,10.139,0,0,1,3.522,4.827c.838,2.923,1.761,5.973,1.761,5.973l3.271.439-1.846,7.785a8.8,8.8,0,0,1-6.122-4.152,42.713,42.713,0,0,1-3.522-8.29S639.536,276.436,642.2,279.306Z" transform="translate(-639.26 -260.823)" fill="#455a64"/>
      <path id="Path_824" data-name="Path 824" d="M656.333,299.811a29.089,29.089,0,0,0-1.574-3.248c-.187-.044-2.863-1.014-2.863-1.014a1.025,1.025,0,0,0,0,.7l-.966.127s.145.61.472.693l-.349.32a1.978,1.978,0,0,0,.655.571.7.7,0,0,0,.634,0s-.119.228.425.588,1.493.878,1.493.878Z" transform="translate(-645.965 -270.242)" fill="#ffbe9d"/>
      <path id="Path_825" data-name="Path 825" d="M654.254,299.437h0s-.949-.535-1.493-.878c-.472-.307-.459-.518-.425-.579a.732.732,0,0,1-.621,0,2.055,2.055,0,0,1-.659-.575h0l.319-.347c-.319-.1-.459-.671-.464-.7h0l.961-.127a1.066,1.066,0,0,1,0-.693h0c.026,0,2.684.974,2.867,1.014a28.836,28.836,0,0,1,1.578,3.252h0Zm-2.365-3.2h0l-.966.127c0,.07.166.606.468.685h0l-.353.32a1.9,1.9,0,0,0,.647.562.7.7,0,0,0,.63,0h0v.026s-.111.228.425.579,1.459.878,1.493.878l2.055.373a25.287,25.287,0,0,0-1.565-3.23c-.14-.031-2.714-.961-2.859-1.014A.985.985,0,0,0,651.888,296.238Z" transform="translate(-645.954 -270.237)" fill="#eb996e"/>
      <path id="Path_826" data-name="Path 826" d="M653.4,297.16a11.634,11.634,0,0,0,1.753.707c.247.092.489.158.681.255a.89.89,0,0,1,.4.395c.162.3.221.513.247.5a1.346,1.346,0,0,0-.153-.557A1.006,1.006,0,0,0,655.9,298a5.986,5.986,0,0,0-.7-.272A12.737,12.737,0,0,0,653.4,297.16Z" transform="translate(-647.385 -271.146)" fill="#eb996e"/>
      <path id="Path_827" data-name="Path 827" d="M651.93,299a1.323,1.323,0,0,0,.485.18c.306.088.74.158,1.2.285a3.03,3.03,0,0,1,1.085.527c.247.2.353.369.374.355a.965.965,0,0,0-.306-.439,2.681,2.681,0,0,0-1.115-.592,12.4,12.4,0,0,0-1.217-.241,2.242,2.242,0,0,0-.506-.075Z" transform="translate(-646.54 -272.178)" fill="#eb996e"/>
      <path id="Path_828" data-name="Path 828" d="M655.787,301.639a1.126,1.126,0,0,0-.642-.439,1.166,1.166,0,0,0-.774-.075c0,.048.34.07.727.215A7.331,7.331,0,0,0,655.787,301.639Z" transform="translate(-647.942 -273.352)" fill="#eb996e"/>
      <path id="Path_829" data-name="Path 829" d="M663.714,302.012l8.249-4.292,1.51,3.173s-7.6,7.772-11.163,7.671" transform="translate(-652.504 -271.46)" fill="#ffbe9d"/>
      <path id="Path_830" data-name="Path 830" d="M653.83,287a2.748,2.748,0,0,0,.111.632c.089.382.217.908.37,1.488s.3,1.106.425,1.483a2.641,2.641,0,0,0,.213.6,3.07,3.07,0,0,0-.111-.628c-.089-.382-.217-.908-.37-1.492s-.3-1.1-.425-1.475A2.858,2.858,0,0,0,653.83,287Z" transform="translate(-647.632 -265.444)" fill="#263238"/>
      <path id="Path_831" data-name="Path 831" d="M654.664,307.466c.026,0,.1-.391.289-1a3.287,3.287,0,0,1,.493-.983,1.763,1.763,0,0,1,1.059-.68,4.016,4.016,0,0,1,1.306.154l1.081.224a1.659,1.659,0,0,1,.4.105.394.394,0,0,1,.2.211.329.329,0,0,1,0,.255s.115-.07.068-.272a.435.435,0,0,0-.217-.268,1.638,1.638,0,0,0-.425-.136l-1.076-.255a3.891,3.891,0,0,0-1.357-.167,1.867,1.867,0,0,0-1.153.759,3.226,3.226,0,0,0-.485,1.036,6.749,6.749,0,0,0-.166.755A.9.9,0,0,0,654.664,307.466Z" transform="translate(-648.109 -275.347)" fill="#263238"/>
      <path id="Path_832" data-name="Path 832" d="M652,305.068a3.544,3.544,0,0,1,.889-1.062,5.334,5.334,0,0,1,1.276-.571.88.88,0,0,0-.425.035,2.456,2.456,0,0,0-.923.413,2.255,2.255,0,0,0-.676.777A.859.859,0,0,0,652,305.068Z" transform="translate(-646.58 -274.66)" fill="#263238"/>
      <path id="Path_833" data-name="Path 833" d="M639.26,295a.524.524,0,0,0,.042.167c.043.11.089.276.153.465.14.439.332,1,.57,1.707s.527,1.584.936,2.506a30.115,30.115,0,0,0,1.472,2.918,9.858,9.858,0,0,0,2.055,2.519,8.825,8.825,0,0,0,2.212,1.426,6.382,6.382,0,0,0,1.7.487,4.577,4.577,0,0,0,.476.048h.166s-.226-.026-.634-.1a6.916,6.916,0,0,1-1.659-.531,9.528,9.528,0,0,1-4.182-3.919c-.578-1-1.047-2-1.476-2.9a24.435,24.435,0,0,1-.966-2.484c-.26-.728-.46-1.295-.613-1.694l-.179-.439a.921.921,0,0,0-.077-.176Z" transform="translate(-639.26 -269.934)" fill="#263238"/>
      <path id="Path_834" data-name="Path 834" d="M644.82,280.42c0,.044.63.281,1.349.724s1.234.9,1.276.878a5.118,5.118,0,0,0-2.612-1.593Z" transform="translate(-642.455 -261.752)" fill="#263238"/>
      <path id="Path_835" data-name="Path 835" d="M659.53,327.54a2.777,2.777,0,0,0,.425.219c.14.07.311.149.51.228s.425.184.689.268a16.044,16.044,0,0,0,1.838.553,18.8,18.8,0,0,0,2.318.377,17.789,17.789,0,0,0,2.348.044,16.067,16.067,0,0,0,1.906-.206c.268-.039.511-.1.719-.14s.4-.092.54-.132a3.234,3.234,0,0,0,.455-.14,3.307,3.307,0,0,0-.468.083c-.145.031-.328.07-.54.105s-.455.088-.723.118a17.394,17.394,0,0,1-1.9.176,19.3,19.3,0,0,1-2.327-.061,19.621,19.621,0,0,1-2.3-.36,17.752,17.752,0,0,1-1.834-.518c-.264-.079-.489-.171-.693-.246s-.374-.145-.515-.2A3.453,3.453,0,0,0,659.53,327.54Z" transform="translate(-650.907 -288.193)" fill="#263238"/>
      <path id="Path_836" data-name="Path 836" d="M675.28,336.157a11.071,11.071,0,0,0,3.254-1.132c0-.039-.732.241-1.629.549A15.224,15.224,0,0,0,675.28,336.157Z" transform="translate(-659.957 -292.391)" fill="#263238"/>
      <g id="Group_16" data-name="Group 16" transform="translate(6.105 35.993)" opacity="0.3">
        <path id="Path_837" data-name="Path 837" d="M669.125,320.083a15.469,15.469,0,0,1-5.717.088,5.99,5.99,0,0,0-2.127-.263,6.955,6.955,0,0,0-1.638.641,6.236,6.236,0,0,1-6.032-.645,4.162,4.162,0,0,0,3.122,2.26,8.953,8.953,0,0,0,3.918-.36,9.912,9.912,0,0,1,2.323-.483c1-.026,1.987.312,2.978.329a5.253,5.253,0,0,0,3.254-1.014Z" transform="translate(-653.61 -319.898)"/>
      </g>
      <g id="Group_17" data-name="Group 17" transform="translate(12.477 42.937)" opacity="0.3">
        <path id="Path_838" data-name="Path 838" d="M674.465,335.72a5.267,5.267,0,0,1-4.016,2.633,2.53,2.53,0,0,1-1.059-.088,1.317,1.317,0,0,1-.8-.689,3.726,3.726,0,0,1,1.246-.531l4.582-1.295" transform="translate(-668.59 -335.72)"/>
      </g>
      <path id="Path_839" data-name="Path 839" d="M673.338,305.24a2.937,2.937,0,0,1-.37.391c-.247.246-.6.6-1.025,1.044s-.923,1-1.536,1.549-1.31,1.115-2.046,1.7a20.682,20.682,0,0,1-2.174,1.536,10.26,10.26,0,0,1-1.957.935,8.027,8.027,0,0,1-1.412.356,2.178,2.178,0,0,1-.528.031,15.9,15.9,0,0,0,1.889-.535,11.315,11.315,0,0,0,1.906-.966,22.872,22.872,0,0,0,2.127-1.536c.736-.588,1.438-1.145,2.046-1.681s1.119-1.066,1.561-1.505.817-.772,1.081-1a2.19,2.19,0,0,1,.438-.325Z" transform="translate(-652.493 -275.68)" fill="#eb996e"/>
    </g>
  </g>
</svg>
