<svg xmlns="http://www.w3.org/2000/svg" width="239" height="239.936" viewBox="0 0 239 239.936">
  <g id="Mobile_Marketing-pana" data-name="Mobile Marketing-pana" transform="translate(-27.5 -23.9)">
    <g id="freepik--background-complete--inject-13" transform="translate(38.519 23.9)">
      <path id="Path_840" data-name="Path 840" d="M120.445,94.691h0A18.441,18.441,0,0,1,102,76.245h0A18.441,18.441,0,0,1,120.445,57.8h0a18.441,18.441,0,0,1,18.445,18.445h0a18.475,18.475,0,0,1-18.445,18.445Z" transform="translate(-72.955 -39.57)" fill="#ebebeb"/>
      <path id="Path_841" data-name="Path 841" d="M176.052,23.9l2.527,4.625,4.625,2.527-4.625,2.474-2.527,4.625-2.527-4.625L168.9,31.052l4.625-2.527Z" transform="translate(-103.879 -23.9)" fill="#f5f5f5"/>
      <path id="Path_842" data-name="Path 842" d="M373.278,256.3l1.882,3.442,3.442,1.882-3.442,1.882-1.882,3.5-1.882-3.5-3.5-1.882,3.5-1.882Z" transform="translate(-195.864 -131.324)" fill="#ebebeb"/>
      <path id="Path_843" data-name="Path 843" d="M385.72,224.5l.86,1.56,1.559.86-1.559.86-.86,1.56-.86-1.56-1.56-.86,1.56-.86Z" transform="translate(-202.983 -116.625)" fill="#e0e0e0"/>
      <path id="Path_844" data-name="Path 844" d="M146.62,27.1l.86,1.56,1.56.86-1.56.86-.86,1.56-.86-1.56-1.56-.86,1.56-.86Z" transform="translate(-92.462 -25.379)" fill="#e0e0e0"/>
      <path id="Path_845" data-name="Path 845" d="M59.342,287.555a5.548,5.548,0,0,0,3.28-5.216,5.41,5.41,0,0,0-5.27-5.539,5.352,5.352,0,0,0-5.163,5.647,5.6,5.6,0,0,0,3.388,5.162C47.511,288.9,48,297.665,48,297.665l19.037-.161S67.355,288.631,59.342,287.555Z" transform="translate(-47.99 -140.8)" fill="#e0e0e0"/>
      <path id="Path_846" data-name="Path 846" d="M398.53,401.829a3.03,3.03,0,0,0-3.5-2.366,2.971,2.971,0,0,0-2.366,2.527,2.967,2.967,0,0,0-3.334-2.527,2.911,2.911,0,0,0-2.474,2.366,4.008,4.008,0,0,0,.7,2.9,11.609,11.609,0,0,0,2.1,2.2c1.076.968,2.043,1.828,3.119,2.8,1.076-.968,1.936-1.882,3.011-2.8a11.609,11.609,0,0,0,2.1-2.2A4.246,4.246,0,0,0,398.53,401.829Z" transform="translate(-204.607 -197.479)" fill="#ebebeb"/>
      <g id="Group_18" data-name="Group 18" transform="translate(33.616 30.868)">
        <path id="Path_847" data-name="Path 847" d="M114.587,86.463v2.743h-1.022v2.689H110.5v-6.4a4.274,4.274,0,0,1,1.129-3.011,3.621,3.621,0,0,1,2.8-1.183,3.851,3.851,0,0,1,3.119,1.613l-2.527,1.828c-.161-.376-.376-.592-.753-.592-.484,0-.7.323-.7.968v1.291h1.022Z" transform="translate(-110.5 -81.3)" fill="none" stroke="#fff" stroke-width="1"/>
        <path id="Path_848" data-name="Path 848" d="M128.441,86.808v3.011a1.2,1.2,0,0,0-.538-.161c-.538,0-.753.376-.753,1.183V94.39H124.3V90.249a3.685,3.685,0,0,1,.914-2.581,3.081,3.081,0,0,1,2.366-.968A7.364,7.364,0,0,1,128.441,86.808Z" transform="translate(-116.879 -83.796)" fill="none" stroke="#fff" stroke-width="1"/>
        <path id="Path_849" data-name="Path 849" d="M140.644,91.017h-4.3a2.774,2.774,0,0,1-.108-.592,1.9,1.9,0,0,1,.161-.753h1.452a.942.942,0,0,0-.968-.86,1.045,1.045,0,0,0-.86.43,1.871,1.871,0,0,0-.323,1.129,2.045,2.045,0,0,0,.323,1.183.923.923,0,0,0,.86.43,1.207,1.207,0,0,0,.807-.43l1.613,1.936a3.852,3.852,0,0,1-2.474.86,3.955,3.955,0,0,1-2.8-6.722,3.892,3.892,0,0,1,2.85-1.129,3.856,3.856,0,0,1,3.872,3.872A2.311,2.311,0,0,0,140.644,91.017Z" transform="translate(-120.854 -83.704)" fill="none" stroke="#fff" stroke-width="1"/>
        <path id="Path_850" data-name="Path 850" d="M156.644,91.017h-4.3a2.775,2.775,0,0,1-.108-.592,1.9,1.9,0,0,1,.161-.753h1.452a.942.942,0,0,0-.968-.86,1.045,1.045,0,0,0-.86.43,1.871,1.871,0,0,0-.323,1.129,2.045,2.045,0,0,0,.323,1.183.923.923,0,0,0,.86.43,1.207,1.207,0,0,0,.807-.43l1.613,1.936a3.852,3.852,0,0,1-2.474.86,3.955,3.955,0,0,1-2.8-6.722,3.892,3.892,0,0,1,2.85-1.129,3.856,3.856,0,0,1,3.872,3.872A1.261,1.261,0,0,0,156.644,91.017Z" transform="translate(-128.25 -83.704)" fill="none" stroke="#fff" stroke-width="1"/>
      </g>
    </g>
    <g id="freepik--Floor--inject-13" transform="translate(27.5 263.258)">
      <path id="Path_851" data-name="Path 851" d="M265.729,469.161c0,.054-53.346.161-119.114.161S27.5,469.269,27.5,469.161,80.846,469,146.615,469,265.729,469.108,265.729,469.161Z" transform="translate(-27.5 -469)" fill="#263238"/>
    </g>
    <g id="freepik--Icons--inject-13" transform="translate(38.632 68.001)">
      <path id="Path_852" data-name="Path 852" d="M396.409,147.419h0a21.843,21.843,0,0,1-29.2-10.11h0a21.843,21.843,0,0,1,10.11-29.2h0a21.843,21.843,0,0,1,29.2,10.11h0a21.843,21.843,0,0,1-10.11,29.2Z" transform="translate(-194.64 -105.908)" fill="#e99000"/>
      <path id="Path_853" data-name="Path 853" d="M425.664,272.772h0a15.072,15.072,0,0,1-8.712-19.413h0a15.028,15.028,0,0,1,19.413-8.712h0a15.072,15.072,0,0,1,8.712,19.413h0a15.032,15.032,0,0,1-19.413,8.712Z" transform="translate(-218.195 -169.579)" fill="#e99000"/>
      <path id="Path_854" data-name="Path 854" d="M59.708,148.416h0A11.521,11.521,0,0,1,48.2,136.908h0A11.521,11.521,0,0,1,59.708,125.4h0a11.521,11.521,0,0,1,11.508,11.508h0a11.487,11.487,0,0,1-11.508,11.508Z" transform="translate(-48.2 -114.918)" fill="#e99000"/>
      <path id="Path_855" data-name="Path 855" d="M87.057,374.038h0a19.767,19.767,0,0,1-23.823-14.681h0a19.793,19.793,0,0,1,14.681-23.823h0a19.767,19.767,0,0,1,23.823,14.681h0a19.793,19.793,0,0,1-14.681,23.823Z" transform="translate(-54.899 -211.799)" fill="#455a64"/>
      <path id="Path_856" data-name="Path 856" d="M378.85,359.345h0a9.238,9.238,0,0,1-9.25-9.2h0a9.249,9.249,0,0,1,9.25-9.249h0a9.238,9.238,0,0,1,9.249,9.2h0a9.249,9.249,0,0,1-9.249,9.25Z" transform="translate(-196.763 -214.53)" fill="#455a64"/>
      <g id="Group_19" data-name="Group 19" transform="translate(13.121 135.62)">
        <path id="Path_857" data-name="Path 857" d="M77.87,366.9l.7,3.227-2.743.592-.054.538a4.5,4.5,0,0,1,2.474.753,3.9,3.9,0,0,1,1.56,2.474,3.582,3.582,0,0,1-.645,3.011,4.336,4.336,0,0,1-2.8,1.721,5.3,5.3,0,0,1-2.581-.108l-.592-2.743a4.136,4.136,0,0,0,1.775.108,2.268,2.268,0,0,0,1.129-.592,1,1,0,0,0,.215-1.022,1.363,1.363,0,0,0-.914-.968,3.265,3.265,0,0,0-1.775-.108,3.207,3.207,0,0,0-.968.376l-.054-6.077Z" transform="translate(-72.6 -362.168)" fill="#fff"/>
        <path id="Path_858" data-name="Path 858" d="M89.182,371.562l-.538-2.474a4.983,4.983,0,0,1,.323-3.6,4.128,4.128,0,0,1,5.808-1.291,5.172,5.172,0,0,1,1.828,3.173l.538,2.474a4.983,4.983,0,0,1-.323,3.6,3.762,3.762,0,0,1-2.635,1.882,3.6,3.6,0,0,1-3.173-.645A5.033,5.033,0,0,1,89.182,371.562Zm2.474-3.764.807,3.764c.161.7.484.968,1.022.86s.753-.538.592-1.183l-.807-3.764c-.161-.7-.484-.968-1.022-.86C91.709,366.668,91.548,367.1,91.655,367.8Z" transform="translate(-79.932 -360.591)" fill="#fff"/>
        <path id="Path_859" data-name="Path 859" d="M108.652,359.391a2.817,2.817,0,0,1,2.259.43A2.768,2.768,0,0,1,112.2,361.7a2.817,2.817,0,0,1-.43,2.259,2.768,2.768,0,0,1-1.882,1.291,2.817,2.817,0,0,1-2.259-.43,2.768,2.768,0,0,1-1.291-1.882,2.817,2.817,0,0,1,.43-2.259A2.89,2.89,0,0,1,108.652,359.391Zm.323,1.613a1.034,1.034,0,0,0-.807.592,1.067,1.067,0,0,0-.161.968,1.034,1.034,0,0,0,.592.807,1.067,1.067,0,0,0,.968.161,1.034,1.034,0,0,0,.807-.592,1.067,1.067,0,0,0,.161-.968,1.034,1.034,0,0,0-.592-.807A1.436,1.436,0,0,0,108.975,361Zm6.184-2.9-2.1,12.153-1.022.215,2.151-12.153Zm2.259,5.216a2.817,2.817,0,0,1,2.259.43,2.768,2.768,0,0,1,1.291,1.882,2.817,2.817,0,0,1-.43,2.259,2.768,2.768,0,0,1-1.882,1.291,2.817,2.817,0,0,1-2.259-.43,2.768,2.768,0,0,1-1.291-1.882,2.817,2.817,0,0,1,.43-2.259A2.768,2.768,0,0,1,117.418,363.316Zm.323,1.667a1.034,1.034,0,0,0-.807.592,1.067,1.067,0,0,0-.161.968,1.22,1.22,0,0,0,.592.86,1.067,1.067,0,0,0,.968.161,1.291,1.291,0,0,0,.807-.592,1.152,1.152,0,0,0,.161-1.022,1.034,1.034,0,0,0-.592-.807A1.017,1.017,0,0,0,117.74,364.983Z" transform="translate(-88.164 -358.1)" fill="#fff"/>
      </g>
      <g id="Group_20" data-name="Group 20" transform="translate(175.795 12.418)">
        <path id="Path_860" data-name="Path 860" d="M379.779,129.323l-2.043,16.187-2.635-.323L377.143,129Z" transform="translate(-375.1 -129)" fill="#fff"/>
        <path id="Path_861" data-name="Path 861" d="M387.562,140.329l.43-3.549a11.408,11.408,0,0,1,1.506-4.786,2.778,2.778,0,0,1,2.689-1.506,2.732,2.732,0,0,1,2.2,2.1,11.335,11.335,0,0,1,.269,5l-.43,3.549a11.407,11.407,0,0,1-1.506,4.786,2.824,2.824,0,0,1-2.689,1.506,2.732,2.732,0,0,1-2.2-2.1A10.587,10.587,0,0,1,387.562,140.329Zm3.227-4.195-.7,5.431c-.108.968.054,1.506.484,1.56s.753-.43.86-1.4l.7-5.431c.108-.968-.054-1.506-.484-1.559S390.9,135.166,390.788,136.134Z" transform="translate(-380.786 -129.681)" fill="#fff"/>
        <path id="Path_862" data-name="Path 862" d="M402.374,142.229l.43-3.549a11.407,11.407,0,0,1,1.506-4.786A2.778,2.778,0,0,1,407,132.387a2.732,2.732,0,0,1,2.2,2.1,11.334,11.334,0,0,1,.269,5l-.43,3.549a11.407,11.407,0,0,1-1.506,4.786,2.824,2.824,0,0,1-2.689,1.506,2.732,2.732,0,0,1-2.2-2.1A11.334,11.334,0,0,1,402.374,142.229Zm3.227-4.195-.7,5.431c-.108.968.054,1.506.484,1.56s.753-.43.86-1.4l.7-5.431c.108-.968-.054-1.506-.484-1.56S405.762,137.066,405.6,138.034Z" transform="translate(-387.639 -130.559)" fill="#fff"/>
        <path id="Path_863" data-name="Path 863" d="M422.1,134.4a2.092,2.092,0,0,1,1.559,1.452,5.716,5.716,0,0,1,.323,3.065,6.43,6.43,0,0,1-1.076,2.9,1.829,1.829,0,0,1-3.442-.43,5.778,5.778,0,0,1-.323-3.065,6.429,6.429,0,0,1,1.076-2.9A2.194,2.194,0,0,1,422.1,134.4Zm-.269,2.366a.8.8,0,0,0-.807.43,2.821,2.821,0,0,0-.484,1.291,2.654,2.654,0,0,0,.161,1.344.931.931,0,0,0,.7.645.8.8,0,0,0,.807-.43,2.329,2.329,0,0,0,.484-1.291,2.655,2.655,0,0,0-.161-1.344A1.021,1.021,0,0,0,421.826,136.761Zm5.7-1.452-5.862,15.7-.86-.108,5.862-15.7Zm-.108,8.013a2.177,2.177,0,0,1,1.56,1.452,5.779,5.779,0,0,1,.323,3.065,6.429,6.429,0,0,1-1.076,2.9,1.829,1.829,0,0,1-3.442-.43,5.778,5.778,0,0,1-.323-3.065,6.429,6.429,0,0,1,1.076-2.9A1.971,1.971,0,0,1,427.419,143.322Zm-.323,2.366a.8.8,0,0,0-.807.43,2.328,2.328,0,0,0-.484,1.291,2.655,2.655,0,0,0,.161,1.344.931.931,0,0,0,.7.645.8.8,0,0,0,.807-.43,2.329,2.329,0,0,0,.484-1.291,2.655,2.655,0,0,0-.161-1.344C427.634,145.9,427.419,145.688,427.1,145.688Z" transform="translate(-395.422 -131.491)" fill="#fff"/>
      </g>
      <g id="Group_21" data-name="Group 21" transform="translate(200.747 79.961)">
        <path id="Path_864" data-name="Path 864" d="M428.383,255.353l-4.3,14.2-2.581-.323,3.227-10.11-2.581-.323.538-4.195Z" transform="translate(-421.5 -254.6)" fill="#fff"/>
        <path id="Path_865" data-name="Path 865" d="M434.574,265.206l.43-3.173a10.143,10.143,0,0,1,1.344-4.3,2.481,2.481,0,0,1,2.42-1.344,2.51,2.51,0,0,1,1.99,1.882,10.717,10.717,0,0,1,.269,4.517l-.43,3.173a10.142,10.142,0,0,1-1.344,4.3,2.438,2.438,0,0,1-2.42,1.344,2.51,2.51,0,0,1-1.99-1.882A9.207,9.207,0,0,1,434.574,265.206Zm2.9-3.711-.645,4.894c-.108.86.054,1.344.43,1.4s.645-.376.753-1.237l.645-4.894c.108-.86-.054-1.344-.43-1.4C437.854,260.151,437.586,260.581,437.478,261.495Z" transform="translate(-427.476 -255.418)" fill="#fff"/>
        <path id="Path_866" data-name="Path 866" d="M452.254,258.2a1.847,1.847,0,0,1,1.4,1.291,5.693,5.693,0,0,1,.323,2.743,5.509,5.509,0,0,1-.968,2.635,1.889,1.889,0,0,1-1.721.914,1.847,1.847,0,0,1-1.4-1.291,5.831,5.831,0,0,1-.323-2.8,5.515,5.515,0,0,1,.968-2.581A2.137,2.137,0,0,1,452.254,258.2Zm-.269,2.151a.809.809,0,0,0-.753.376,2.608,2.608,0,0,0-.43,1.129,3.136,3.136,0,0,0,.108,1.237.871.871,0,0,0,.645.592.809.809,0,0,0,.753-.376,2.608,2.608,0,0,0,.43-1.129,3.137,3.137,0,0,0-.108-1.237A.871.871,0,0,0,451.985,260.346Zm5.109-1.291-5.216,14.089-.753-.108,5.27-14.089Zm-.054,7.152a1.847,1.847,0,0,1,1.4,1.291,5.832,5.832,0,0,1,.323,2.8,5.509,5.509,0,0,1-.968,2.635c-.538.7-1.076,1.022-1.667.914a1.847,1.847,0,0,1-1.4-1.291,5.746,5.746,0,0,1-.323-2.8,5.508,5.508,0,0,1,.968-2.635A1.712,1.712,0,0,1,457.04,266.208Zm-.269,2.1a.809.809,0,0,0-.753.376,2.609,2.609,0,0,0-.43,1.129,3.042,3.042,0,0,0,.108,1.237.871.871,0,0,0,.645.592.809.809,0,0,0,.753-.376,2.61,2.61,0,0,0,.43-1.129,3.044,3.044,0,0,0-.108-1.237A.987.987,0,0,0,456.771,268.3Z" transform="translate(-434.454 -256.259)" fill="#fff"/>
      </g>
      <g id="Group_22" data-name="Group 22" transform="translate(4.087 17.204)">
        <path id="Path_867" data-name="Path 867" d="M56.983,137.9l2.85.376-1.344,3.5a4.4,4.4,0,0,1,.538,1.291,5.383,5.383,0,0,1-.86,3.818,1.668,1.668,0,0,1-1.506.753,1.464,1.464,0,0,1-.86-.43l.323-2.635c.215.269.376.43.538.43a.515.515,0,0,0,.484-.269,1.321,1.321,0,0,0,.269-.807,1.436,1.436,0,0,0-.161-.968.889.889,0,0,0-.7-.43l.645-1.775-.592-.054Z" transform="translate(-55.8 -137.9)" fill="#fff"/>
        <path id="Path_868" data-name="Path 868" d="M64.222,144.541l.269-2.044a6.592,6.592,0,0,1,.86-2.743,1.653,1.653,0,0,1,1.56-.86c.592.054,1.022.484,1.291,1.237a6.237,6.237,0,0,1,.161,2.9l-.269,2.044a6.592,6.592,0,0,1-.86,2.743,1.653,1.653,0,0,1-1.56.86c-.592-.054-1.022-.484-1.291-1.237A6.237,6.237,0,0,1,64.222,144.541Zm1.882-2.366-.376,3.119c-.054.592,0,.86.269.914s.43-.215.484-.807l.376-3.119c.054-.592,0-.86-.269-.914S66.158,141.583,66.1,142.175Z" transform="translate(-59.651 -138.356)" fill="#fff"/>
        <path id="Path_869" data-name="Path 869" d="M75.6,140.093a1.206,1.206,0,0,1,.914.86,3.763,3.763,0,0,1,.215,1.775,3.616,3.616,0,0,1-.645,1.667,1.188,1.188,0,0,1-1.076.592,1.206,1.206,0,0,1-.914-.86,3.685,3.685,0,0,1,.43-3.442A1.188,1.188,0,0,1,75.6,140.093Zm-.161,1.344a.569.569,0,0,0-.484.269,1.57,1.57,0,0,0-.269.753,1.352,1.352,0,0,0,.108.807.643.643,0,0,0,.376.376c.161.054.323-.054.484-.269a1.57,1.57,0,0,0,.269-.753,1.41,1.41,0,0,0-.108-.807A.531.531,0,0,0,75.443,141.437Zm3.28-.807-3.388,9.034-.484-.054,3.388-9.034Zm-.054,4.571a1.206,1.206,0,0,1,.914.86,3.855,3.855,0,0,1,.215,1.775,3.3,3.3,0,0,1-.645,1.667,1.188,1.188,0,0,1-1.076.592,1.206,1.206,0,0,1-.914-.86,3.855,3.855,0,0,1-.215-1.775,3.616,3.616,0,0,1,.645-1.667A1.188,1.188,0,0,1,78.669,145.2Zm-.161,1.344a.569.569,0,0,0-.484.269,1.57,1.57,0,0,0-.269.753,1.352,1.352,0,0,0,.108.807.643.643,0,0,0,.376.376.569.569,0,0,0,.484-.269,1.57,1.57,0,0,0,.269-.753,1.41,1.41,0,0,0-.108-.807A.643.643,0,0,0,78.508,146.546Z" transform="translate(-64.15 -138.91)" fill="#fff"/>
      </g>
      <g id="Group_23" data-name="Group 23" transform="translate(174.128 130.074)">
        <path id="Path_870" data-name="Path 870" d="M375.818,354.893l-.323,2.689-3.5-.43,2.42-5.378.108-.161a1.267,1.267,0,0,0,.108-.43c.054-.376-.054-.592-.323-.592a.3.3,0,0,0-.269.161.611.611,0,0,0-.161.43,1.658,1.658,0,0,0,.054.538l-.968,2.044a2.842,2.842,0,0,1-.538-1.291,5.289,5.289,0,0,1-.054-1.613,4.25,4.25,0,0,1,.86-2.259,1.6,1.6,0,0,1,1.452-.807c.538.054.914.43,1.183,1.129a4.807,4.807,0,0,1,.269,2.366,5.317,5.317,0,0,1-.376,1.4l-.914,2.043Z" transform="translate(-372 -347.788)" fill="#fff"/>
        <path id="Path_871" data-name="Path 871" d="M380.654,354.541l.269-2.043a6.593,6.593,0,0,1,.86-2.743,1.653,1.653,0,0,1,1.56-.86c.592.054,1.022.484,1.291,1.237a6.237,6.237,0,0,1,.161,2.9l-.269,2.043a6.592,6.592,0,0,1-.86,2.743,1.653,1.653,0,0,1-1.56.86c-.592-.054-1.022-.484-1.291-1.237A8.03,8.03,0,0,1,380.654,354.541Zm1.882-2.366-.376,3.119c-.054.592,0,.86.269.914s.43-.215.484-.807l.376-3.119c.054-.592,0-.86-.269-.914Q382.7,351.287,382.536,352.175Z" transform="translate(-375.975 -348.296)" fill="#fff"/>
        <path id="Path_872" data-name="Path 872" d="M392.1,350.093a1.206,1.206,0,0,1,.914.86,3.763,3.763,0,0,1,.215,1.775,3.616,3.616,0,0,1-.645,1.667,1.188,1.188,0,0,1-1.076.592,1.206,1.206,0,0,1-.914-.86,3.686,3.686,0,0,1,.43-3.442A1.138,1.138,0,0,1,392.1,350.093Zm-.215,1.344a.569.569,0,0,0-.484.269,1.57,1.57,0,0,0-.269.753,1.41,1.41,0,0,0,.108.807.643.643,0,0,0,.376.376.569.569,0,0,0,.484-.269,1.57,1.57,0,0,0,.269-.753,1.41,1.41,0,0,0-.108-.807C392.158,351.545,392.1,351.491,391.889,351.437Zm3.28-.807-3.388,9.034-.484-.054,3.388-9.034Zm-.054,4.571a1.206,1.206,0,0,1,.914.86,3.855,3.855,0,0,1,.215,1.775,3.617,3.617,0,0,1-.645,1.667,1.188,1.188,0,0,1-1.076.592,1.206,1.206,0,0,1-.914-.86,3.855,3.855,0,0,1-.215-1.775,3.615,3.615,0,0,1,.645-1.667A1.188,1.188,0,0,1,395.116,355.2Zm-.161,1.344a.569.569,0,0,0-.484.269,1.57,1.57,0,0,0-.269.753,1.352,1.352,0,0,0,.108.807.643.643,0,0,0,.376.376.569.569,0,0,0,.484-.269,1.57,1.57,0,0,0,.269-.753,1.41,1.41,0,0,0-.108-.807A.531.531,0,0,0,394.954,356.546Z" transform="translate(-380.489 -348.849)" fill="#fff"/>
      </g>
    </g>
    <g id="freepik--Device--inject-13" transform="translate(98.969 45.626)">
      <path id="Path_873" data-name="Path 873" d="M250.69,282.47H176.533A16.111,16.111,0,0,1,160.4,266.338h0l.054-185.9A16.111,16.111,0,0,1,176.587,64.3h.054l74.158.054a16.111,16.111,0,0,1,16.133,16.133l-.108,185.851a16.1,16.1,0,0,1-16.079,16.133C250.69,282.524,250.69,282.524,250.69,282.47Z" transform="translate(-160.4 -64.3)" fill="#263238"/>
      <path id="Path_874" data-name="Path 874" d="M254.843,76.454H240.485a3.558,3.558,0,0,0-3.5,3.657v2.581a3.558,3.558,0,0,1-3.5,3.657H205.476a3.558,3.558,0,0,1-3.5-3.657h0V80.057a3.558,3.558,0,0,0-3.5-3.657H180.847a11.28,11.28,0,0,0-11.293,11.239v.054L169.5,269.134a11.292,11.292,0,0,0,11.293,11.293h0l74,.054a11.292,11.292,0,0,0,11.293-11.293h0l.054-181.441A11.292,11.292,0,0,0,254.843,76.454Z" transform="translate(-164.606 -69.893)" fill="#fff"/>
      <path id="Path_875" data-name="Path 875" d="M322.989,103.854c0,.054-1.882.108-4.195.108s-4.195,0-4.195-.054,1.882-.108,4.195-.108S322.989,103.8,322.989,103.854Z" transform="translate(-231.677 -82.558)" fill="#263238"/>
      <path id="Path_876" data-name="Path 876" d="M323.089,107.854c0,.054-1.882.108-4.195.108s-4.195,0-4.195-.054,1.882-.108,4.195-.108S323.089,107.8,323.089,107.854Z" transform="translate(-231.723 -84.407)" fill="#263238"/>
      <path id="Path_877" data-name="Path 877" d="M323.089,111.854c0,.054-1.882.108-4.195.108s-4.195,0-4.195-.054,1.882-.108,4.195-.108S323.089,111.8,323.089,111.854Z" transform="translate(-231.723 -86.256)" fill="#263238"/>
      <path id="Path_878" data-name="Path 878" d="M184,108.294h.807l2.259-.054-.054.054c0-.484,0-1.022-.054-1.613v-.914a.857.857,0,0,1,.753-.7h1.076a.869.869,0,0,1,.753.86c0,.753,0,1.56.054,2.366l-.108-.108h2.85l-.108.108c0-1.129,0-2.312-.054-3.549v-.914a.746.746,0,0,0-.376-.645l-1.237-1.237-1.183-1.183-.592-.592a1.379,1.379,0,0,0-.592-.43.88.88,0,0,0-.645.108l-.538.538-1.022,1.022c-.645.645-1.291,1.291-1.775,1.828a1.827,1.827,0,0,0-.161,1.076v2.635c0-.43,0-1.022-.054-1.613v-1.56a1.084,1.084,0,0,1,.161-.592c.538-.645,1.129-1.183,1.775-1.882l1.022-1.022a5.071,5.071,0,0,1,.538-.538,1.06,1.06,0,0,1,.807-.161,2.047,2.047,0,0,1,.7.484l.592.592,1.183,1.183,1.237,1.237.323.323a.867.867,0,0,1,.161.484v.914c0,1.183,0,2.366.054,3.549v.108h-3.173v-2.474a.692.692,0,0,0-.592-.7h-1.022a.689.689,0,0,0-.592.538V108.4h-2.9A.909.909,0,0,0,184,108.294Z" transform="translate(-171.309 -80.6)" fill="#263238"/>
      <path id="Path_879" data-name="Path 879" d="M258.036,379.261a4.071,4.071,0,0,1-.807.054l-2.1.054c-1.775,0-4.248.054-6.991.054s-5.216,0-6.991-.054l-2.1-.054a3.307,3.307,0,0,1-.753-.054,3.81,3.81,0,0,1,.753-.054l2.1-.054c1.775,0,4.248-.054,6.991-.054s5.216,0,6.991.054l2.1.054A4.071,4.071,0,0,1,258.036,379.261Z" transform="translate(-196.408 -209.812)" fill="#455a64"/>
      <path id="Path_880" data-name="Path 880" d="M289.072,388.361c0,.054-11.4.161-25.436.161s-25.436-.054-25.436-.161,11.4-.161,25.436-.161S289.072,388.254,289.072,388.361Z" transform="translate(-196.362 -214.019)" fill="#455a64"/>
      <path id="Path_881" data-name="Path 881" d="M273.155,396.861c0,.054-7.8.161-17.477.161s-17.477-.054-17.477-.161,7.851-.161,17.477-.161S273.155,396.754,273.155,396.861Z" transform="translate(-196.362 -217.948)" fill="#455a64"/>
      <path id="Path_882" data-name="Path 882" d="M331.965,409.525l-1.56-1.613-1.506,1.506V404.9h3.065Zm-1.56-1.775h0l1.452,1.452v-4.141h-2.8v4.033Z" transform="translate(-238.287 -221.738)" fill="#263238"/>
      <path id="Path_883" data-name="Path 883" d="M254.132,409.811l-.538-.269a1.42,1.42,0,1,1,.7-1.882,1.3,1.3,0,0,1-.269,1.56Zm-1.291-3.012a1.456,1.456,0,0,0,0,2.9,1.525,1.525,0,0,0,.7-.215h0l.43.161-.108-.43h0a1.447,1.447,0,0,0-.108-2.044,1.748,1.748,0,0,0-.914-.376Z" transform="translate(-202.507 -222.616)" fill="#263238"/>
      <path id="Path_884" data-name="Path 884" d="M261.528,409.735l-.645-1.56L259.7,407.1h2.9Zm-1.56-2.528,1.022.914.538,1.344.914-2.259Z" transform="translate(-206.3 -222.755)" fill="#263238"/>
      <rect id="Rectangle_100" data-name="Rectangle 100" width="1.882" height="0.108" transform="matrix(0.838, -0.545, 0.545, 0.838, 54.664, 185.339)" fill="#263238"/>
      <path id="Path_885" data-name="Path 885" d="M244.837,407.081a.914.914,0,0,0-1.076-.7.857.857,0,0,0-.7.753.871.871,0,0,0-1.022-.753.914.914,0,0,0-.753.753,1.159,1.159,0,0,0,.215.86,1.854,1.854,0,0,0,.645.645c.323.269.645.538.968.86.323-.269.592-.538.914-.86a8.264,8.264,0,0,0,.645-.7A1.247,1.247,0,0,0,244.837,407.081Z" transform="translate(-197.783 -222.414)" fill="#e99000"/>
      <path id="Path_886" data-name="Path 886" d="M266.65,396.085v-7.636c0-4.947,0-12.153-.054-21.134l.108.108-85.988.054h0l.161-.161v28.824l-.108-.108,61.52.054,17.961.054h6.077l.323-.054-.376-.054H260.25l-17.961.054-61.628.054H180.5V367.1h.161l85.988.054h.108v.108c0,9.034-.054,16.24-.054,21.188v7.1A2.439,2.439,0,0,1,266.65,396.085Z" transform="translate(-169.691 -204.265)" fill="#263238"/>
      <rect id="Rectangle_101" data-name="Rectangle 101" width="19.037" height="23.823" transform="translate(14.428 186.896) rotate(-89.67)" fill="#ebebeb"/>
      <path id="Path_887" data-name="Path 887" d="M210.9,376.23h-6.668l-17.208-.054.108-.108c-.054,5.647-.054,12.153-.108,19.037l-.161-.161h6.507l6.184.054,11.132.054-.108.108c.054-5.7.108-10.486.161-13.82,0-1.667.054-2.958.054-3.872v17.746h-.108l-11.132-.054-6.184-.054h-6.507l-.161-.161c.054-6.883.108-13.39.108-19.037V375.8h.108l17.262.161,4.84.054h1.613Z" transform="translate(-172.557 -208.287)" fill="#263238"/>
      <rect id="Rectangle_102" data-name="Rectangle 102" width="16.671" height="22.156" transform="translate(15.228 185.704) rotate(-89.67)" fill="#e0e0e0"/>
      <path id="Path_888" data-name="Path 888" d="M188.7,400.725l7.8-10.325,4.786,6.507,3.227-3.442,6.346,7.367Z" transform="translate(-173.481 -215.036)" fill="#f5f5f5"/>
      <path id="Path_889" data-name="Path 889" d="M212.9,386.575a1.748,1.748,0,1,1-1.721-1.775h0a1.78,1.78,0,0,1,1.721,1.775Z" transform="translate(-183.05 -212.447)" fill="#f5f5f5"/>
      <path id="Path_890" data-name="Path 890" d="M240.467,146.761H240.2l-.753.054-2.689.054c-2.259,0-5.378.054-8.873.054s-6.561,0-8.873-.054l-2.689-.054-.753-.054H215.3c.108,0,.161-.054.269-.054h.753l2.689-.054c2.259-.054,5.378-.054,8.873-.054s6.561,0,8.873.054l2.689.054h.753A.485.485,0,0,1,240.467,146.761Z" transform="translate(-185.777 -102.342)" fill="#263238"/>
      <path id="Path_891" data-name="Path 891" d="M323.525,336.73l-2.366-2.366-2.259,2.259V329.9h4.571Zm-2.312-2.635.054.054,2.1,2.1v-6.13h-4.195v6.023Z" transform="translate(-233.665 -187.07)" fill="#263238"/>
      <path id="Path_892" data-name="Path 892" d="M212.076,336.215,211,335.731a2.833,2.833,0,1,1,.86-.645Zm-2.581-5.915a2.823,2.823,0,0,0,.054,5.647,2.839,2.839,0,0,0,1.344-.43h.054l.807.376-.161-.807.054-.054a2.809,2.809,0,0,0-.161-3.979,3.164,3.164,0,0,0-1.99-.753Z" transform="translate(-181.8 -187.255)" fill="#263238"/>
      <path id="Path_893" data-name="Path 893" d="M226.7,335.97l-1.237-3.065-2.366-2.151,5.7-.054Zm-3.065-5.055,1.99,1.828,1.076,2.635,1.775-4.517Z" transform="translate(-189.382 -187.44)" fill="#263238"/>
      <rect id="Rectangle_103" data-name="Rectangle 103" width="3.711" height="0.215" transform="matrix(0.838, -0.545, 0.545, 0.838, 36.174, 145.271)" fill="#263238"/>
      <path id="Path_894" data-name="Path 894" d="M193.863,330.776a1.815,1.815,0,0,0-2.1-1.4,1.772,1.772,0,0,0-1.4,1.506,1.8,1.8,0,0,0-1.99-1.506,1.831,1.831,0,0,0-1.506,1.452,2.209,2.209,0,0,0,.43,1.721,14.645,14.645,0,0,0,1.237,1.344c.645.538,1.237,1.076,1.882,1.667.645-.592,1.183-1.129,1.775-1.667a7.348,7.348,0,0,0,1.237-1.344A2.39,2.39,0,0,0,193.863,330.776Z" transform="translate(-172.621 -186.816)" fill="#e99000"/>
      <circle id="Ellipse_6" data-name="Ellipse 6" cx="3.872" cy="3.872" r="3.872" transform="translate(16.886 40.547)" fill="#ebebeb"/>
      <path id="Path_895" data-name="Path 895" d="M262.306,301.061c0,.054-16.294.161-36.353.161s-36.353-.054-36.353-.161,16.294-.161,36.353-.161S262.306,301.008,262.306,301.061Z" transform="translate(-173.897 -173.665)" fill="#455a64"/>
      <path id="Path_896" data-name="Path 896" d="M262.306,289.861c0,.054-16.294.161-36.353.161s-36.353-.054-36.353-.161,16.294-.161,36.353-.161S262.306,289.808,262.306,289.861Z" transform="translate(-173.897 -168.488)" fill="#455a64"/>
      <path id="Path_897" data-name="Path 897" d="M229.179,312.561c0,.054-8.873.161-19.79.161s-19.79-.054-19.79-.161,8.873-.161,19.79-.161S229.179,312.454,229.179,312.561Z" transform="translate(-173.897 -178.981)" fill="#455a64"/>
      <path id="Path_898" data-name="Path 898" d="M251.463,433.96a1.533,1.533,0,0,1-3.065-.054,1.516,1.516,0,0,1,1.56-1.506,1.483,1.483,0,0,1,1.506,1.56Z" transform="translate(-201.074 -234.449)" fill="#263238"/>
      <path id="Path_899" data-name="Path 899" d="M260.365,433.96a1.533,1.533,0,1,1-1.506-1.56,1.55,1.55,0,0,1,1.506,1.56Z" transform="translate(-205.191 -234.449)" fill="#263238"/>
      <path id="Path_900" data-name="Path 900" d="M269.265,434.06a1.533,1.533,0,1,1-1.506-1.56,1.516,1.516,0,0,1,1.506,1.56Z" transform="translate(-209.305 -234.496)" fill="#263238"/>
      <rect id="Rectangle_104" data-name="Rectangle 104" width="85.988" height="52.593" transform="translate(11.454 52.055)" fill="#e0e0e0"/>
      <path id="Path_901" data-name="Path 901" d="M196.5,230.619,221.13,197.6,236.4,218.25l10.379-11.024,20.274,23.339Z" transform="translate(-177.087 -125.916)" fill="#f5f5f5"/>
      <path id="Path_902" data-name="Path 902" d="M273.132,185.293a5.531,5.531,0,0,1-5.539,5.539,5.566,5.566,0,0,1-.054-11.132h0A5.623,5.623,0,0,1,273.132,185.293Z" transform="translate(-207.363 -117.642)" fill="#f5f5f5"/>
      <path id="Path_903" data-name="Path 903" d="M267.15,247.515c0-1.129-.054-48.614-.108-118.953l.108.108H181.161l.161-.161V247.461l-.108-.108,85.935.161-85.988.108h-.108v-.108c0-33.288,0-74.48-.054-118.953V128.4h86.257v.108c0,35.223-.054,64.962-.054,85.935,0,10.486,0,18.714-.054,24.414v8.658Z" transform="translate(-169.922 -93.929)" fill="#263238"/>
    </g>
    <g id="freepik--Megaphone--inject-13" transform="translate(63.846 77.196)">
      <path id="Path_904" data-name="Path 904" d="M236.093,352.17l1.882-6.4c.323-1.4.753-3.012,1.344-4.894a13.113,13.113,0,0,1,3.173-4.732c1.936-1.99,2.85-1.99,4.195-3.012.108-.054.269-.215.376-.269a1.581,1.581,0,0,0,.645-.538c1.129-1.237.054-3.119-2.259-2.9-1.721.108-4.517.645-9.088,5.324a.742.742,0,0,0-.161.215c-2.42,3.119-4.625-5.754-5.055-9.088a3.46,3.46,0,0,0-3.926-2.9,3.959,3.959,0,0,0-.753.215L215.336,328.4a5.09,5.09,0,0,0-3.227.108,3.292,3.292,0,0,0-2.1,3.926l4.517,17.961L201.3,394.438h28.555Z" transform="translate(-144.183 -215.42)" fill="#ffbe9d"/>
      <path id="Path_905" data-name="Path 905" d="M263.766,296.784l-8.819,17.262-4.41-1.237-22.156,18.069a4.482,4.482,0,0,1-6.238-.538l-8.443-9.787s16.993-7.314,20.166-13.39c3.119-6.077-.484-7.475-.484-7.475l8.013-9.088Z" transform="translate(-149.914 -200.474)" fill="#e99000"/>
      <path id="Path_906" data-name="Path 906" d="M197.484,183.985s-12.906-2.85-31.083-20.327S139.728,123,137.523,123.11s-11.938-4.41-30.384,35.761-11.185,49.474-7.529,49.42,28.609-7.045,44.2-5.27,35.6,9.895,35.6,9.895Z" transform="translate(-95.087 -123.006)" fill="#e99000"/>
      <path id="Path_907" data-name="Path 907" d="M294.991,251.816l-4.41,8.389-1.99,3.764a10.928,10.928,0,0,1-14.251,4.84L246.7,259.183,262.833,222.4l27.641,14.735A10.856,10.856,0,0,1,294.991,251.816Z" transform="translate(-165.168 -168.95)" fill="#e99000"/>
      <g id="Group_24" data-name="Group 24" transform="translate(81.532 53.45)" opacity="0.4">
        <path id="Path_908" data-name="Path 908" d="M294.991,251.816l-4.41,8.389-1.99,3.764a10.928,10.928,0,0,1-14.251,4.84L246.7,259.183,262.833,222.4l27.641,14.735A10.856,10.856,0,0,1,294.991,251.816Z" transform="translate(-246.7 -222.4)"/>
      </g>
      <path id="Path_909" data-name="Path 909" d="M110.621,160.425c-9.841,21.779-13.928,41.139-9.142,43.29S118.1,190,127.937,168.223s13.928-41.139,9.142-43.29S120.462,138.7,110.621,160.425Z" transform="translate(-97.116 -123.807)" fill="#e99000"/>
      <g id="Group_25" data-name="Group 25" transform="translate(2.361 0.931)" opacity="0.5">
        <path id="Path_910" data-name="Path 910" d="M110.621,160.425c-9.841,21.779-13.928,41.139-9.142,43.29S118.1,190,127.937,168.223s13.928-41.139,9.142-43.29S120.462,138.7,110.621,160.425Z" transform="translate(-99.477 -124.738)"/>
      </g>
      <path id="Path_911" data-name="Path 911" d="M334.475,290.032,327,287.719l4.625-8.819,5.646,3.5Z" transform="translate(-202.286 -195.066)" fill="#e99000"/>
      <g id="Group_26" data-name="Group 26" transform="translate(124.714 83.834)" opacity="0.6">
        <path id="Path_912" data-name="Path 912" d="M331.625,278.9,327,287.719l1.56.484,3.764-8.927Z" transform="translate(-327 -278.9)"/>
      </g>
      <path id="Path_913" data-name="Path 913" d="M311.992,276.241c-.108.269-3.872-1.183-8.335-3.227s-8.066-3.872-7.959-4.141,3.872,1.237,8.335,3.227S312.1,276.025,311.992,276.241Z" transform="translate(-187.816 -190.417)" fill="#e99000"/>
      <path id="Path_914" data-name="Path 914" d="M317.632,266.687c-.108.215-3.5-1.183-7.582-3.173s-7.26-3.818-7.152-4.033,3.5,1.183,7.582,3.173S317.74,266.418,317.632,266.687Z" transform="translate(-191.144 -186.08)" fill="#e99000"/>
      <path id="Path_915" data-name="Path 915" d="M307.794,287.2a5.859,5.859,0,0,1-2.366-.538c-.7-.215-1.56-.484-2.474-.807s-1.882-.807-2.9-1.291c-4.087-1.882-7.26-3.764-7.152-3.979s3.5,1.237,7.529,3.119c1.022.484,1.99.968,2.85,1.344s1.667.7,2.366,1.022A7.137,7.137,0,0,1,307.794,287.2Z" transform="translate(-186.521 -195.834)" fill="#e99000"/>
      <path id="Path_916" data-name="Path 916" d="M141.05,180.734s-11.239-6.937-17.37,8.174,5.647,17.639,5.647,17.639A100,100,0,0,0,141.05,180.734Z" transform="translate(-107.486 -148.955)" fill="#e99000"/>
      <g id="Group_27" data-name="Group 27" transform="translate(13.397 13.71)" opacity="0.5">
        <path id="Path_917" data-name="Path 917" d="M152.051,148.5a22.652,22.652,0,0,1-.43,2.9c-.323,1.882-.86,4.517-1.56,7.851l-1.559,5.324c-.269.968-.592,1.936-.86,2.958l-.484,1.559c-.161.538-.376,1.022-.592,1.56l-2.527,6.561c-.215.592-.43,1.129-.645,1.721a15.931,15.931,0,0,1-.807,1.667l-1.667,3.442-1.667,3.442c-.269.538-.538,1.129-.86,1.667s-.645,1.076-.914,1.56l-3.549,6.023a12.159,12.159,0,0,1-.86,1.4l-.914,1.291-1.775,2.527-3.227,4.517c-2.151,2.581-3.926,4.625-5.163,6.077A18.859,18.859,0,0,1,120,214.7a14.764,14.764,0,0,1,1.721-2.366c1.183-1.506,2.85-3.657,4.947-6.292l3.119-4.517L131.508,199c.323-.43.592-.86.914-1.291s.538-.914.86-1.4l3.549-6.023.914-1.56c.323-.538.538-1.076.86-1.667l1.667-3.442c.538-1.129,1.129-2.312,1.667-3.442.269-.538.592-1.129.807-1.667l.645-1.721,2.581-6.453c.215-.538.43-1.022.592-1.559s.323-1.022.484-1.506l.914-2.9,1.667-5.27,1.882-7.744A7.647,7.647,0,0,1,152.051,148.5Z" transform="translate(-120 -148.5)"/>
      </g>
      <g id="Group_28" data-name="Group 28" transform="translate(66.475 103.425)" opacity="0.4">
        <path id="Path_918" data-name="Path 918" d="M218.7,330.748a20.963,20.963,0,0,0,3.6,5.216,7.392,7.392,0,0,0,5.7,2.312,4.537,4.537,0,0,0,4.141-4.087,2.662,2.662,0,0,0,3.388-.592,5.752,5.752,0,0,0,1.183-3.549,3.327,3.327,0,0,0,4.195-1.129,5.4,5.4,0,0,0,.538-4.625,17.71,17.71,0,0,0-2.2-4.248,5.528,5.528,0,0,0,3.119-.323c.914-.484,1.613-1.721,1.022-2.635a2.519,2.519,0,0,0-1.56-.968,10.248,10.248,0,0,0-4.571-.753c-.376,0,.7,4.571-10.164,10.809A82.5,82.5,0,0,1,218.7,330.748Z" transform="translate(-218.7 -315.33)"/>
      </g>
      <path id="Path_919" data-name="Path 919" d="M254.67,355.968c0,.054-.753-.108-1.882-.054a10.664,10.664,0,0,0-7.959,3.818c-.753.914-1.076,1.56-1.129,1.506a1.908,1.908,0,0,1,.215-.484,8.841,8.841,0,0,1,.753-1.183,10.115,10.115,0,0,1,8.12-3.872,12.229,12.229,0,0,1,1.4.108Z" transform="translate(-163.781 -230.565)" fill="#eb996e"/>
      <path id="Path_920" data-name="Path 920" d="M220,330.372c1.721,1.667,2.958,3.549,4.786,5.216.86.753,2.151,2.2,3.227,2.42s1.828.054,2.259-1.022c.376-.86-.269-1.99-.753-2.689-1.183-1.828-2.259-3.28-3.173-4.679-.43-.645.108-.807.323-.484a32.475,32.475,0,0,1,2.85,2.581c1.022,1.291,1.237,3.011,3.926,2.474a2.448,2.448,0,0,0,1.022-.43,2.721,2.721,0,0,0,.645-3.227,9.2,9.2,0,0,0-1.506-2.259c1.129,1.291,2.42,2.689,4.248,2.8a2.571,2.571,0,0,0,2.581-1.4c.538-1.237-.215-2.42-1.022-3.388a34.209,34.209,0,0,0-4.571-4.679,3.383,3.383,0,0,0-2.2-.807,3.175,3.175,0,0,0-2.689.968,3.779,3.779,0,0,0-.753,2.8s-2.366-1.183-4.248.054a6,6,0,0,0-2.366,3.442Z" transform="translate(-152.826 -214.434)" fill="#ffbe9d"/>
      <path id="Path_921" data-name="Path 921" d="M242.814,315.493a2.852,2.852,0,0,1-.323-3.227c.43-.807.914-1.56,1.4-1.721,2.259-.753,12.1.968,11.992,3.119s-.807,3.227-6.131,2.474c-.968-.108-2.42-.323-2.42-.323l-1.291,1.936Z" transform="translate(-163.057 -209.611)" fill="#ffbe9d"/>
      <path id="Path_922" data-name="Path 922" d="M242.031,332.694A12.584,12.584,0,0,0,236.6,327.8a2.357,2.357,0,0,1,1.022.376,9.6,9.6,0,0,1,3.926,3.549A1.668,1.668,0,0,1,242.031,332.694Z" transform="translate(-160.5 -217.67)" fill="#eb996e"/>
      <path id="Path_923" data-name="Path 923" d="M247.073,322.752a18.432,18.432,0,0,1-1.559-1.022l-1.129-.645c-.323-.161-.484-.161-.484-.215s.215-.054.592.054a5.236,5.236,0,0,1,1.237.592A4.206,4.206,0,0,1,247.073,322.752Z" transform="translate(-163.874 -214.45)" fill="#eb996e"/>
      <path id="Path_924" data-name="Path 924" d="M249.9,319.491a4.429,4.429,0,0,1-1.882-.215,5.419,5.419,0,0,1-1.237-.645,1.456,1.456,0,0,1-.376-.43,9.527,9.527,0,0,0,1.667.807A10.156,10.156,0,0,1,249.9,319.491Z" transform="translate(-165.029 -213.232)" fill="#eb996e"/>
      <path id="Path_925" data-name="Path 925" d="M228.305,337.637a9.894,9.894,0,0,1-.914-1.183,10.729,10.729,0,0,0-2.312-2.635,4.677,4.677,0,0,0-3.28-.86,6.953,6.953,0,0,0-1.4.43,3.29,3.29,0,0,1,.323-.269,2.357,2.357,0,0,1,1.022-.376,4.556,4.556,0,0,1,3.442.807,9.52,9.52,0,0,1,2.312,2.743A12.678,12.678,0,0,1,228.305,337.637Z" transform="translate(-153.011 -219.924)" fill="#eb996e"/>
      <path id="Path_926" data-name="Path 926" d="M242.12,382.4a34.732,34.732,0,0,1-4.033.591,33.961,33.961,0,0,1-4.087.323,34.733,34.733,0,0,1,4.033-.592A26.682,26.682,0,0,1,242.12,382.4Z" transform="translate(-159.298 -242.908)" fill="#eb996e"/>
    </g>
    <g id="freepik--Stars--inject-13" transform="translate(38.901 37.828)">
      <path id="Path_927" data-name="Path 927" d="M405.121,49.8l.645,1.129,1.076.592-1.076.645-.645,1.076-.592-1.076-1.129-.645,1.129-.592Z" transform="translate(-212.655 -49.8)" fill="#e99000"/>
      <path id="Path_928" data-name="Path 928" d="M428.721,101l.645,1.129,1.075.592-1.075.592-.645,1.129-.592-1.129L427,102.721l1.129-.592Z" transform="translate(-223.564 -73.467)" fill="#e99000"/>
      <path id="Path_929" data-name="Path 929" d="M50.421,237.5l.592,1.129,1.129.592-1.129.645-.592,1.076-.592-1.076-1.129-.645,1.129-.592Z" transform="translate(-48.7 -136.562)" fill="#e99000"/>
      <path id="Path_930" data-name="Path 930" d="M372.279,62.6l1.4,2.527,2.527,1.4-2.527,1.4-1.4,2.581-1.4-2.581-2.581-1.4,2.581-1.4Z" transform="translate(-196.431 -55.717)" fill="#e99000"/>
      <path id="Path_931" data-name="Path 931" d="M69.679,205.1l1.4,2.581,2.527,1.344-2.527,1.452-1.4,2.527-1.4-2.527L65.7,209.026l2.581-1.344Z" transform="translate(-56.558 -121.585)" fill="#e99000"/>
      <path id="Path_932" data-name="Path 932" d="M433.279,318.6l1.4,2.527,2.528,1.4-2.528,1.4-1.4,2.581-1.4-2.581-2.581-1.4,2.581-1.4Z" transform="translate(-224.627 -174.049)" fill="#e99000"/>
    </g>
  </g>
</svg>
