<svg xmlns="http://www.w3.org/2000/svg" width="95.183" height="114.521" viewBox="0 0 95.183 114.521">
  <g id="Group_29" data-name="Group 29" transform="translate(-232.341 -306.569)">
    <g id="Group_2" data-name="Group 2" transform="translate(236.34 310.142)">
      <g id="Group_1" data-name="Group 1" transform="translate(0 20.62)">
        <path id="Path_1" data-name="Path 1" d="M1131.265,247.234l-6.654,5.892c-6.086-1.585-15.236-3.179-21-2.49a39.674,39.674,0,0,0-15.236,4.823,37.212,37.212,0,0,0-13.3,13.014,33.744,33.744,0,0,0-5.2,17.532,32.527,32.527,0,0,0,4.31,16.918,33.16,33.16,0,0,0,12.821,12.523,34.553,34.553,0,0,0,18.066,4.426,38.644,38.644,0,0,0,18.63-5.328q10.755-6.191,14.7-16.536a27.6,27.6,0,0,0-.239-20.8l-36.279,21.212-3.871-6.729,44.1-25.712q9.2,16.215,5.17,31.181t-19.956,24.13q-19.334,11.127-38.187,4.446a40.39,40.39,0,0,1-22.169-18.466,41.423,41.423,0,0,1-5.634-21.3,40.777,40.777,0,0,1,5.969-21.192,45.9,45.9,0,0,1,16.845-16.1,50.377,50.377,0,0,1,18.52-6.4C1109.118,241.412,1122.323,241.826,1131.265,247.234Z" transform="translate(-1061.341 -241.927)" fill="#e99000" stroke="#e99000" stroke-miterlimit="10" stroke-width="8"/>
      </g>
      <path id="Path_2" data-name="Path 2" d="M1069.039,276.929l-6.167-15.284a21.251,21.251,0,0,1,11.721-27.579h0a21.253,21.253,0,0,1,27.581,11.721l3.754,9.3" transform="translate(-1061.341 -232.534)" fill="none" stroke="#fff" stroke-linecap="round" stroke-miterlimit="10" stroke-width="7"/>
    </g>
  </g>
</svg>
